<?xml version="1.0" encoding="utf-8"?>
<!-- Generator: Adobe Illustrator 27.5.0, SVG Export Plug-In . SVG Version: 6.00 Build 0)  -->
<svg version="1.1" xmlns="http://www.w3.org/2000/svg" xmlns:xlink="http://www.w3.org/1999/xlink" x="0px" y="0px"
	 viewBox="0 0 898 500" style="enable-background:new 0 0 898 500;" xml:space="preserve">
<g id="BACKGROUND">
	<rect x="0.149" y="0.279" style="fill:#FFF8F3;" width="897.702" height="499.441"/>
</g>
<g id="OBJECTS">
	<path style="fill:#ECF2F0;" d="M789.276,190.584c-20.522,10.413-33.05,31.394-45.493,50.752
		c-12.443,19.358-27.595,39.371-49.773,45.51c-11.947,3.307-24.779,2.169-36.73,5.46c-23.425,6.451-40.075,31.253-37.841,55.447
		c2.234,24.194,22.613,45.31,46.616,49.08c24.003,3.77,49.526-9.664,60.634-31.273c6.81-13.248,8.441-28.458,12.579-42.768
		s12.037-28.992,25.88-34.491c18.752-7.45,39.45,4.727,59.623,4.264c20.728-0.476,40.179-16.094,45.123-36.229
		C879.782,216.056,826.983,171.451,789.276,190.584z"/>
	<path style="fill:#F9E3E2;" d="M515.833,150.128c-1.435,24.235,0.297,48.704-3.367,72.704
		c-4.989,32.675-20.195,63.715-42.956,87.684c-16.039,16.891-36.878,32.455-40.316,55.493c-4.211,28.21,24.008,54.526,52.516,53.572
		c28.507-0.954,53.122-23.902,62.203-50.941c12.425-36.998,1.364-82.148,25.525-112.798c17.793-22.572,49.244-29.431,70.504-48.773
		c21.15-19.243,29.994-50.958,21.855-78.369c-7.376-24.838-44.857-67.127-72.681-71.076
		C539.023,50.513,518.091,111.968,515.833,150.128z"/>
	<path style="fill:#ECF2F0;" d="M263.25,181.967c24.271,21.122,61.662,21.645,85.689,43.045
		c26.288,23.415,33.044,68.554,66.551,79.356c23.647,7.624,51.257-9.641,57.264-33.749c6.007-24.108-8.15-50.82-30.354-61.965
		c-13.856-6.955-30.261-8.689-42.78-17.835c-15.404-11.253-21.535-31.165-24.873-49.948c-7.332-41.26-32.978-109.266-88.159-81.859
		C242.083,81.117,222.522,146.524,263.25,181.967z"/>
	<path style="fill:#F8E2E2;" d="M259.031,238.703c-15.426-11.246-36.532-14.225-54.467-7.688
		c-33.374,12.162-48.695,50.775-77.364,71.747c-23.527,17.21-54.963,21.668-77.016,40.73c-21.519,18.601-30.276,52.038-17.02,77.204
		c13.257,25.166,49.441,36.34,72.748,20.034c21.383-14.96,27.318-45.97,49.44-59.813c19.98-12.503,45.941-6.795,69.08-11.279
		C282.736,358.339,310.614,276.307,259.031,238.703z"/>
	<g>
		<path style="fill:#0B1119;" d="M133.007,191.805c5.339,8.215,17.51,11.023,25.907,5.976c7.66-4.603,11.461-14.1,19.311-18.373
			c14.824-8.07,34.742,6.582,49.503-1.603c7.625-4.228,11.232-13.945,9.618-22.512c-1.614-8.568-7.712-15.837-15.155-20.379
			c-8.91-5.437-20.629-7.217-29.829-2.285c-6.52,3.495-10.996,9.788-15.084,15.954c-8.769,13.228-16.421,20.581-32.835,20.126
			c-4.443-0.123-8.311-0.863-11.488,2.836C128.52,176.713,129.576,186.525,133.007,191.805z"/>
		<g>
			<path style="fill:#F79ED8;" d="M187.47,126.532c-0.089-1.358-0.049-2.737,0.148-4.133c-0.16,0.795-0.301,1.589-0.424,2.382
				C187.277,125.366,187.37,125.95,187.47,126.532z"/>
			<g>
				<g>
					<path style="fill:#C25B37;" d="M140.075,227.892l-42.763,11.165l-0.999,0.261c-1.994,0.52-4.037,0.063-5.592-1.048
						l-36.946-26.708c-1.374-0.993-1.682-2.912-0.689-4.286c0.829-1.147,2.306-1.55,3.57-1.074l42.66,16.077l-6.59-0.787
						l42.763-11.165c4.851-1.267,9.809,1.639,11.076,6.489C147.831,221.667,144.925,226.625,140.075,227.892z"/>
					<path style="fill:#C25B37;" d="M156.011,208.739l36.321-31.595l-2.13,6.927l-6.929-51.662
						c-0.271-2.023,1.149-3.884,3.172-4.155c1.842-0.247,3.548,0.908,4.044,2.644l14.382,50.101c0.655,2.281,0.01,4.628-1.495,6.249
						l-0.635,0.679l-32.857,35.184c-3.77,4.037-10.099,4.253-14.136,0.484c-4.037-3.77-4.253-10.099-0.483-14.136
						C155.501,209.206,155.757,208.961,156.011,208.739z"/>
					<path style="fill:#C25B37;" d="M152.413,196.658L152.413,196.658c-4.364,1.944-9.442,0.016-11.286-4.283l-3.352-7.817
						c-1.844-4.3,0.218-9.408,4.582-11.351l0,0c4.364-1.944,9.442-0.016,11.286,4.283l3.352,7.817
						C158.839,189.606,156.777,194.715,152.413,196.658z"/>
					<path style="fill:#C25B37;" d="M142.862,191.732c1.362,5.32,2.361,16.473,1.658,21.602c1.189,1.363,2.801,1.603,4.316,1.74
						c1.514,0.138,2.852-0.595,4.269-0.989c2.568-0.713,4.306-1.626,4.456-4.056c-0.567-0.603-2.226-3.214-3.143-4.717
						c-1.571-2.575-3.454-9.525-2.955-12.346C148.368,193.453,146.053,191.83,142.862,191.732z"/>
					<path style="fill:#FFF8F3;" d="M149.844,189.316c0.66,1.218,2.173,1.715,3.476,1.105c1.302-0.61,1.916-2.103,1.435-3.405
						L149.844,189.316z"/>
					<path style="fill:#C25B37;" d="M141.755,189.595c1.512,1.771,1.56,4.212,0.107,5.452c-1.453,1.24-3.856,0.81-5.368-0.961
						c-1.512-1.771-1.56-4.212-0.107-5.452C137.84,187.394,140.243,187.824,141.755,189.595z"/>
					<path style="fill:#00D3CD;" d="M129.395,212.784"/>
					<path style="fill:#C25B37;" d="M44.366,201.735c0.59-0.843,4.13,1.839,4.13,1.839s-4.381-3.785-4.049-4.496
						c0.522-1.123,5.431,3.259,5.431,3.259s-5.216-4.904-4.134-5.754c1.082-0.849,5.666,4.589,5.666,4.589s-3.981-5.382-2.931-5.952
						c1.05-0.57,5.907,6.57,5.907,6.57s0.491-4.363,1.407-4.343c1.546,0.034,0.899,9.336,0.899,9.336l-2.651,4.95
						C54.04,211.732,43.776,202.578,44.366,201.735z"/>
					<path style="fill:#C25B37;" d="M191.137,118.446c-1.091-0.301-2.21,4.457-2.21,4.457s1.057-6.282,0.277-6.652
						c-1.231-0.585-2.316,6.573-2.316,6.573s0.979-7.817-0.534-7.777c-1.513,0.04-1.583,7.865-1.583,7.865s-0.402-7.355-1.693-7.102
						c-1.29,0.253-0.396,9.713-0.396,9.713s-3.477-3.353-4.24-2.693c-1.011,0.876,3.146,5.655,4.97,7.659
						c0.526,0.578,1.172,1.028,1.895,1.324l0.342,0.14c2.196,0.896,4.643-0.528,4.949-2.88
						C191.175,124.651,191.826,118.635,191.137,118.446z"/>
					<path style="fill:#C25B37;" d="M142.851,300.086c0.651,1.034,1.252,2.082,1.88,3.123l1.798,3.145
						c1.195,2.097,2.336,4.209,3.471,6.322c2.261,4.229,4.415,8.486,6.51,12.759c2.105,4.27,4.108,8.568,6.086,12.871
						c1.953,4.311,3.867,8.631,5.714,12.97l-0.194-2.893c-0.328,6.068-0.696,12.131-1.133,18.184
						c-0.414,6.056-0.926,12.1-1.459,18.141c-0.559,6.037-1.167,12.068-1.867,18.086c-0.356,3.008-5.551-18.774-5.968-15.774
						c-0.402,3.002-0.28,42.54-0.775,45.53c-0.303,1.827,5.829,5.916,7.75,6.2c1.921,0.283,3.185-1.079,3.487-2.906
						c0.004-0.026,0.023-14.082,0.027-14.109c0.405-3.002,0.886-5.993,1.384-8.983c0.483-2.991,1.026-5.975,1.571-8.958
						c1.101-5.965,2.294-11.917,3.535-17.863c1.268-5.942,2.556-11.882,3.943-17.808c1.364-5.93,2.797-11.85,4.27-17.765
						c0.114-0.459,0.13-0.918,0.059-1.357l-0.253-1.535c-0.76-4.627-1.452-9.272-2.106-13.926c-0.629-4.662-1.232-9.33-1.734-14.025
						c-0.512-4.693-0.964-9.401-1.31-14.137c-0.168-2.37-0.33-4.741-0.439-7.126l-0.157-3.579c-0.023-1.201-0.075-2.394-0.075-3.601
						c-0.001-9.616-8.197-17.391-18.307-17.367c-10.109,0.024-18.304,7.838-18.303,17.453
						C140.255,294.397,141.228,297.491,142.851,300.086z"/>
					<path style="fill:#C25B37;" d="M173.125,347.788c-8.615,3.004-14.434,11.492-16.514,20.375
						c-2.08,8.884-0.991,18.183,0.529,27.18c1.649,9.762,3.794,19.44,6.422,28.985C166.34,398.828,170.348,373.287,173.125,347.788z
						"/>
					<path style="fill:#C25B37;" d="M218.014,338.721c-7.702,1.211-14.471,8.294-18.31,16.5c-3.839,8.206-5.214,17.443-6.167,26.471
						c-1.034,9.796-1.647,19.608-1.836,29.387C200.137,386.892,209.578,362.908,218.014,338.721z"/>
					<path style="fill:#C25B37;" d="M235.892,329.967l-1.226-1.711c-0.475-0.615-0.954-1.233-1.429-1.847
						c-1.85-2.391-3.703-4.781-5.555-7.165c-2.119-2.724-4.233-5.445-6.359-8.162c-2.325-2.977-4.654-5.953-6.994-8.928
						c-3.419-4.341-6.845-8.673-10.334-13.018c-1.748-2.172-3.503-4.343-5.323-6.544c-0.916-1.102-1.839-2.207-2.836-3.362
						c-0.505-0.583-1.02-1.168-1.634-1.831c-0.313-0.336-0.642-0.685-1.097-1.135l-0.401-0.382l-0.239-0.216l-0.307-0.272
						c-0.246-0.208-0.496-0.423-1.014-0.805l-0.18-0.135l-0.304-0.21c-0.214-0.142-0.389-0.256-0.641-0.413
						c-0.425-0.26-0.867-0.5-1.317-0.717c-0.088-0.042-0.21-0.107-0.571-0.264c-0.292-0.127-0.591-0.247-0.896-0.355
						c-0.23-0.083-0.463-0.161-0.699-0.233l0-0.004c-0.379-0.115-0.763-0.219-1.146-0.305c-5.846-1.31-11.66,0.957-15.148,5.358
						c-1.371,1.724-2.379,3.778-2.894,6.072c-1.418,6.33,1.357,12.62,6.488,15.96c0.156,0.141,0.312,0.285,0.472,0.433
						c0.893,0.831,1.836,1.738,2.781,2.655c0.08,0.076,0.161,0.155,0.237,0.235c0.522,0.505,1.045,1.016,1.565,1.532
						c1.304,1.282,2.61,2.585,3.917,3.895c1.936,1.943,3.874,3.896,5.808,5.861c1.426,1.448,2.852,2.896,4.275,4.351
						c0.469,0.477,0.934,0.955,1.402,1.432c4.365,4.462,8.723,8.95,13.074,13.449c1.781,1.838,3.558,3.68,5.331,5.522l-0.533,1.521
						l-19.933,56.788l-2.722,11.516c2.166,3.286,4.367,6.703,7.008,9.577l39.902-77.507
						C238.396,337.153,238.06,333.006,235.892,329.967z"/>
					<path style="fill:#C25B37;" d="M172.68,298.949c0.049,0.017,0.211,0.146,0.381,0.293c0.171,0.147,0.361,0.31,0.557,0.49
						l-0.152-0.108c-0.376-0.279-0.496-0.387-0.607-0.485l-0.112-0.105l-0.045-0.046C172.669,298.95,172.688,298.963,172.68,298.949
						z"/>
					<path style="fill:#FCEAD4;" d="M140.279,292.928c0.008,0.022,0.016,0.046,0.024,0.068
						c4.306,12.822,18.508,19.642,31.754,15.235c1.944-0.646,3.76-1.498,5.429-2.523c0.478-0.295,0.947-0.604,1.403-0.928
						c8.775-6.208,12.921-17.402,9.447-27.843c-0.481-1.444-1.086-2.811-1.802-4.096c-1.521-2.734-3.541-5.092-5.908-7.001
						c-2.028-1.635-4.307-2.941-6.753-3.873c-0.431-0.163-0.866-0.318-1.305-0.458c-0.638-0.205-1.284-0.384-1.936-0.536l-0.003,0
						c-4.482-1.055-9.34-0.914-14.073,0.66c-4.837,1.61-8.88,4.495-11.858,8.135c-0.06,0.076-0.123,0.153-0.183,0.229
						C139.465,276.322,137.591,284.848,140.279,292.928z"/>
					<path style="fill:#C25B37;" d="M122.552,228.971c0.253,1.162,0.595,2.236,1.018,3.229c1.671,3.934,4.562,6.671,7.796,9.163
						c2.526,1.947,5.26,3.744,7.782,5.843c1.554,1.293,2.787,2.677,3.748,4.135c3.617,5.485,3.368,11.996,1.675,18.441
						c-0.018,0.072-0.039,0.145-0.057,0.217c-0.229,0.851-0.481,1.699-0.752,2.547c3.697,0.757,12.957-2.685,16.505-3.869
						c0.306-0.101,1.161-0.349,2.333-0.673c4.434-1.229,13.405-3.574,14.188-3.378c-1.566-0.697-2.947-1.674-4.099-2.976
						c-0.044-0.046-0.085-0.093-0.121-0.14c-2.277-2.651-3.614-6.604-3.608-12.169c0.001-0.192,0.002-0.384,0.009-0.57
						c0.109-4.896,1.573-8.238,4.361-12.408c2.896-4.334,5.523-9.284,5.034-14.474c-0.21-2.246-0.877-4.179-1.892-5.832
						c-3.609-5.919-11.611-8.279-18.843-8.725c-0.672-0.041-1.34-0.065-1.995-0.077c-1.205-0.016-2.375,0.017-3.481,0.095
						c-2.315,0.163-4.839,0.39-7.41,0.762c-3.477,0.501-7.05,1.265-10.339,2.5c-0.014,0.004-0.03,0.009-0.046,0.016l-0.014,0.004
						c-3.525,1.329-6.722,3.192-9.122,5.841c-0.015,0.018-0.033,0.037-0.048,0.055C122.916,219.088,121.706,225.08,122.552,228.971z
						"/>
					<path style="fill:#FF9E00;" d="M131.366,241.363c2.526,1.947,5.26,3.744,7.782,5.843c0.172,0.143,0.339,0.288,0.503,0.433
						l29.786-2.937c0.645-2.916,1.944-5.426,3.891-8.34c2.896-4.334,5.523-9.284,5.034-14.474c-0.21-2.246-0.877-4.179-1.892-5.832
						c-3.609-5.919-11.611-8.279-18.844-8.725c-0.672-0.041-1.34-0.065-1.995-0.077c-1.205-0.016-2.375,0.017-3.481,0.095
						c-2.315,0.163-4.839,0.39-7.41,0.762c-3.477,0.501-7.05,1.265-10.339,2.5c-0.014,0.004-0.03,0.009-0.046,0.016l-0.014,0.004
						c-3.525,1.329-6.722,3.192-9.122,5.841c-0.015,0.018-0.033,0.037-0.048,0.055c-2.257,2.559-3.467,8.551-2.621,12.443
						c0.253,1.162,0.595,2.236,1.018,3.229C125.24,236.135,128.132,238.871,131.366,241.363z"/>
					<path style="fill:#FF9E00;" d="M99.344,214.018c-0.795,11.421,4.229,23.097,13.07,30.371c6.807-2.045,14.3-3.751,21.107-5.796
						c4.159-8.622,5.134-19.721,1.833-28.707C121.22,211.699,113.478,212.205,99.344,214.018z"/>
					<path style="fill:#FF9E00;" d="M154.484,210.613c6.579-6.402,13.157-12.805,19.736-19.207
						c5.669,0.154,11.166,2.576,14.915,6.83c3.749,4.255,5.631,10.098,5.07,15.741c-10.385,7.661-20.125,16.203-30.51,23.864
						C159.825,229.702,158.355,218.752,154.484,210.613z"/>
					<path style="fill:#FF9E00;" d="M120.196,232.542c6.134,6.534,12.462,13.393,15.047,21.975
						c3.38,11.222-0.216,23.176-1.697,34.802c-2.517,19.765,1.355,40.294,10.898,57.785c19.675-0.9,37.088-13.095,50.35-27.656
						c13.262-14.561,22.451-32.285,31.487-49.785c-17.445-0.245-29.07-3.732-42.244-14.195
						c-10.669-8.473-13.399-16.888-12.391-30.475C154.992,231.132,137.903,233.75,120.196,232.542z"/>
				</g>
			</g>
		</g>
		<g>
			<path style="fill:#E1D1C2;" d="M193.118,412.397c1.506,1.092,3.503,1.614,5.345,1.841c-0.958,1.671-1.512,3.613-1.492,5.576
				c0.028,2.899,1.158,5.611,1.737,8.43c1.129,5.5,0.057,11.539-2.883,16.239l-15.891-32.216l9.997-6.067
				C189.989,408.694,191.117,410.946,193.118,412.397z"/>
			<path style="fill:#E1D1C2;" d="M193.118,412.397c1.504,1.09,3.497,1.613,5.337,1.84c-0.954,1.673-1.504,3.616-1.484,5.577
				c0.028,2.899,1.158,5.611,1.737,8.43c1.129,5.5,0.057,11.539-2.883,16.239l-15.891-32.216l9.997-6.067
				C189.989,408.694,191.117,410.946,193.118,412.397z"/>
			<path style="fill:#E1D1C2;" d="M193.894,444.71l-15.471-31.363c-0.44-0.892-0.129-2.029,0.691-2.527l0,0
				c0.82-0.498,1.851-0.175,2.291,0.717l15.471,31.363c0.44,0.892,0.129,2.03-0.691,2.527l0,0
				C195.365,445.925,194.334,445.603,193.894,444.71z"/>
			
				<path style="fill:none;stroke:#AD9D8E;stroke-width:0.7099;stroke-linecap:round;stroke-linejoin:round;stroke-miterlimit:10;" d="
				M187.286,422.906c0,0,5.445-5.577-0.108-15.276"/>
		</g>
		<g>
			<path style="fill:#E1D1C2;" d="M162.64,432.681c1.857,0.107,3.82-0.531,5.494-1.334c0.096,1.924,0.677,3.857,1.753,5.5
				c1.588,2.425,4.003,4.099,6.011,6.16c3.919,4.022,6.274,9.684,6.335,15.228l-30.763-18.549l5.143-10.503
				C158.008,431.252,160.172,432.539,162.64,432.681z"/>
			<path style="fill:#E1D1C2;" d="M162.64,432.681c1.855,0.107,3.814-0.529,5.487-1.33c0.099,1.923,0.685,3.856,1.76,5.497
				c1.588,2.425,4.003,4.099,6.011,6.16c3.919,4.022,6.274,9.684,6.335,15.228l-30.763-18.549l5.143-10.503
				C158.008,431.252,160.172,432.539,162.64,432.681z"/>
			<path style="fill:#E1D1C2;" d="M180.73,459.468l-29.949-18.058c-0.852-0.514-1.204-1.639-0.782-2.5l0,0
				c0.422-0.862,1.464-1.146,2.316-0.633l29.949,18.058c0.852,0.514,1.204,1.639,0.782,2.501l0,0
				C182.624,459.697,181.582,459.982,180.73,459.468z"/>
			
				<path style="fill:none;stroke:#AD9D8E;stroke-width:0.7099;stroke-linecap:round;stroke-linejoin:round;stroke-miterlimit:10;" d="
				M163.401,444.676c0,0,1.575-7.634-8.334-12.803"/>
		</g>
		<g>
			<defs>
				<path id="SVGID_1_" d="M184.036,255.468c-6.772-5.377-10.342-10.734-11.791-17.402c0.337-0.557,0.694-1.12,1.083-1.703
					c1.99-2.978,3.853-6.246,4.665-9.683c5.351-4.307,10.691-8.628,16.213-12.702c0.561-5.643-1.322-11.486-5.07-15.741
					c-3.749-4.255-9.246-6.676-14.915-6.83c-5.46,5.314-10.921,10.628-16.382,15.943c-0.07-0.005-0.142-0.012-0.212-0.016
					c-0.672-0.041-1.34-0.065-1.995-0.077c-1.205-0.016-2.375,0.017-3.481,0.095c-2.315,0.163-4.839,0.39-7.41,0.762
					c-3.105,0.447-6.284,1.107-9.272,2.121c-0.041-0.115-0.074-0.233-0.116-0.348c-14.134,1.813-21.876,2.319-36.011,4.132
					c-0.795,11.421,4.23,23.097,13.07,30.371c4.747-1.426,9.825-2.689,14.774-4.015c3.485,4.283,6.473,8.89,8.055,14.143
					c3.38,11.222-0.216,23.176-1.697,34.802c-2.517,19.765,1.355,40.294,10.898,57.785c19.675-0.899,37.088-13.095,50.35-27.656
					c13.262-14.561,22.451-32.285,31.487-49.785C208.835,269.417,197.21,265.93,184.036,255.468z"/>
			</defs>
			<clipPath id="SVGID_00000116229456874649634290000005918963493177913269_">
				<use xlink:href="#SVGID_1_"  style="overflow:visible;"/>
			</clipPath>
			
				<path style="clip-path:url(#SVGID_00000116229456874649634290000005918963493177913269_);fill:none;stroke:#0B1119;stroke-width:1.1625;stroke-linecap:round;stroke-linejoin:round;stroke-miterlimit:10;" d="
				M121.26,283.794c9.928-7.093,25.066-4.238,32.892,5.124c7.826,9.362,8.421,23.598,2.771,34.413
				c-3.246,6.214-8.221,11.326-12.265,17.053c-4.044,5.727-7.257,12.63-6.165,19.556"/>
			
				<path style="clip-path:url(#SVGID_00000116229456874649634290000005918963493177913269_);fill:none;stroke:#0B1119;stroke-width:1.1625;stroke-linecap:round;stroke-linejoin:round;stroke-miterlimit:10;" d="
				M176.505,236.876c-8.325,4.983-14.327,14.307-13.849,23.998c0.478,9.69,8.378,18.919,18.063,19.502
				c6.157,0.371,12.147-2.548,16.754-6.649c4.607-4.101,8.047-9.321,11.432-14.477"/>
			
				<path style="clip-path:url(#SVGID_00000116229456874649634290000005918963493177913269_);fill:none;stroke:#0B1119;stroke-width:1.1625;stroke-linecap:round;stroke-linejoin:round;stroke-miterlimit:10;" d="
				M118.872,196.805c-0.71,10.589,0.586,21.967,7.231,30.243c6.644,8.275,19.938,11.774,28.173,5.08
				c11.724-9.529,6.157-31.094,17.981-40.497"/>
			
				<path style="clip-path:url(#SVGID_00000116229456874649634290000005918963493177913269_);fill:none;stroke:#0B1119;stroke-width:1.1625;stroke-linecap:round;stroke-linejoin:round;stroke-miterlimit:10;" d="
				M185.522,337.52c-6.681-6.687-10.283-16.336-9.62-25.765c0.291-4.134,1.441-8.356,4.155-11.487
				c2.714-3.132,7.227-4.918,11.154-3.594c2.764,0.932,4.854,3.187,6.676,5.466c1.822,2.278,3.563,4.72,6.022,6.288
				c2.46,1.568,5.901,2.038,8.203,0.247"/>
		</g>
		<path style="fill:#0B1119;" d="M136.192,187.029c2.609,0.59,4.985,2.16,6.551,4.328c1.775-3.887,1.037-8.76-1.571-12.144
			c3.664,2.205,7.586,3.348,11.829,2.812c4.243-0.536,8.344-3.332,9.609-7.417c0.636-2.054-0.739-3.984-2.642-4.983
			c-1.903-1-4.21-0.794-6.302-0.295s-4.147,1.269-6.296,1.325c-2.637,0.068-5.246-0.948-7.866-0.641
			c-3.638,0.426-6.692,3.607-7.221,7.231C131.752,180.869,132.619,186.221,136.192,187.029z"/>
	</g>
	<path style="fill:#0B1119;" d="M335.491,268.875c-1.923,19.444-8.537,38.21-10.236,57.675c-1.699,19.465,2.737,41.223,18.26,53.09
		c1.205,16.353,0.376,45.602-0.337,61.983c5.025,1.959,5.918,2.326,11.089,0.792c8.922-24.161,19.867-67.906,17.271-93.53
		c14.539-30.168,13.989-67.219-0.735-97.297C359.903,257.252,346.391,263.21,335.491,268.875z"/>
	<path style="fill:none;stroke:#0B1119;stroke-width:0.5812;stroke-linecap:round;stroke-linejoin:round;stroke-miterlimit:10;" d="
		M51.502,201.509c-0.147,2.699,1.403,5.418,3.8,6.667"/>
	<path style="fill:none;stroke:#0B1119;stroke-width:0.5812;stroke-linecap:round;stroke-linejoin:round;stroke-miterlimit:10;" d="
		M185.354,123.784c1.752,2.076,2.243,5.14,1.228,7.66"/>
	<g>
		<path style="fill:#FCD6BE;" d="M769.66,164.062c-2.59-5.948-10.093-9.42-16.499-7.636c-5.801,1.616-10.086,6.766-15.971,8.067
			c-8.619,1.905-16.439-4.939-22.385-11.276c-5.946-6.337-13.464-13.354-22.175-11.892c-5.606,0.94-10.062,5.447-12.125,10.581
			c-2.063,5.135-2.08,10.823-1.549,16.308c0.522,5.398,1.581,10.851,4.233,15.626c2.652,4.775,7.09,8.828,12.533,10.095
			c8.77,2.042,17.423-3.299,26.35-4.553c6.959-0.978,14.029,0.561,21.058,0.353C755.241,189.377,776.182,179.038,769.66,164.062z"/>
		<g>
			<path style="fill:#C25B37;" d="M766.172,223.565l38.523-19.929l0.9-0.465c1.796-0.929,2.99-2.611,3.399-4.453l9.543-43.984
				c0.355-1.636-0.673-3.251-2.295-3.609c-1.355-0.299-2.696,0.377-3.309,1.559l-20.658,39.919l4.299-4.918l-38.523,19.929
				c-4.37,2.26-6.094,7.664-3.852,12.069C756.443,224.087,761.803,225.826,766.172,223.565z"/>
			<path style="fill:#C25B37;" d="M748.734,187.851L748.734,187.851c4.37,2.574,9.941,1.121,12.381-3.227l4.437-7.906
				c2.44-4.349,0.861-10.012-3.508-12.586l0,0c-4.37-2.574-9.941-1.121-12.381,3.227l-4.437,7.906
				C742.786,179.614,744.365,185.278,748.734,187.851z"/>
			<path style="fill:#C25B37;" d="M756.739,184.1c-1.897,5.076-4.066,15.916-3.932,21.027c-1.305,1.21-2.9,1.27-4.389,1.242
				c-1.489-0.028-2.713-0.892-4.051-1.432c-2.424-0.978-4.019-2.062-3.905-4.464c0.616-0.531,2.512-2.915,3.566-4.291
				c1.806-2.358,4.385-8.977,4.203-11.801C751.193,185.194,753.621,183.851,756.739,184.1z"/>
			<path style="fill:#FCEAD4;" d="M753.029,180.344c-0.927,1.348-2.758,1.737-4.2,0.85c-1.442-0.886-1.966-2.723-1.238-4.193
				L753.029,180.344z"/>
			<path style="fill:#C25B37;" d="M760.777,181.599c-1.797,1.703-2.131,4.288-0.745,5.775c1.386,1.486,3.966,1.311,5.764-0.392
				c1.797-1.703,2.131-4.288,0.745-5.775C765.155,179.721,762.574,179.897,760.777,181.599z"/>
			<path style="fill:#00D3CD;" d="M767.595,206.223"/>
			<path style="fill:#C25B37;" d="M818.994,141.304c-0.981-0.233-1.815,4.073-1.815,4.073s0.728-5.67,0.022-5.976
				c-1.115-0.483-1.839,5.974-1.839,5.974s0.607-7.044-0.738-6.957c-1.345,0.087-1.142,7.108-1.142,7.108s-0.607-6.583-1.746-6.312
				c-1.139,0.271-0.024,8.725-0.024,8.725s-3.207-2.889-3.863-2.271c-1.107,1.043,5.44,7.465,5.44,7.465l5.168,1.899
				C818.456,155.033,819.975,141.537,818.994,141.304z"/>
			<g>
				<path style="fill:#C25B37;" d="M733.209,197.633l-46.89,5.108l6.397,3.107l-32.515-39.695c-1.273-1.555-3.556-1.774-5.098-0.491
					c-1.404,1.169-1.71,3.18-0.793,4.705l26.432,44.047c1.204,2.006,3.319,3.114,5.486,3.111l0.911-0.005l47.163-0.189
					c5.411-0.022,9.781-4.462,9.759-9.917c-0.022-5.455-4.426-9.86-9.837-9.838C733.884,197.578,733.538,197.598,733.209,197.633z"
					/>
				<path style="fill:#C25B37;" d="M644.929,162.478c0.51-0.992,4.674,1.39,4.674,1.39s-5.218-3.451-4.965-4.264
					c0.399-1.284,6.266,2.733,6.266,2.733s-6.27-4.537-5.234-5.607c1.036-1.07,6.706,4.133,6.706,4.133s-5.018-5.228-3.977-5.993
					c1.041-0.765,7.244,6.233,7.244,6.233s-0.095-4.77,0.887-4.879c1.302-0.145,1.97,6.075,2.195,8.741
					c0.065,0.769-0.041,1.539-0.311,2.262l-0.127,0.342c-0.818,2.192-3.471,3.01-5.365,1.653
					C649.364,166.671,644.607,163.104,644.929,162.478z"/>
			</g>
			<path style="fill:#C25B37;" d="M772.523,222.853c-0.371,1.113-0.82,2.131-1.337,3.06c-2.049,3.682-5.159,6.056-8.575,8.152
				c-2.669,1.638-5.524,3.106-8.205,4.895c-1.652,1.101-3.001,2.326-4.094,3.654c-4.11,4.993-4.566,11.412-3.609,17.922
				c0.01,0.073,0.023,0.146,0.033,0.219c0.132,0.86,0.286,1.72,0.46,2.581c-3.682,0.344-12.329-4.036-15.658-5.583
				c-0.287-0.132-1.093-0.468-2.199-0.913c-4.187-1.687-12.67-4.958-13.454-4.851c1.599-0.515,3.05-1.325,4.311-2.478
				c0.048-0.041,0.093-0.082,0.133-0.125c2.502-2.356,4.228-6.092,4.818-11.556c0.02-0.188,0.04-0.377,0.053-0.561
				c0.419-4.818-0.648-8.257-2.916-12.653c-2.356-4.568-4.383-9.711-3.35-14.753c0.445-2.182,1.302-4.007,2.468-5.521
				c4.149-5.421,12.195-6.872,19.286-6.527c0.659,0.033,1.312,0.081,1.951,0.14c1.176,0.114,2.311,0.274,3.379,0.47
				c2.237,0.411,4.67,0.906,7.134,1.549c3.333,0.868,6.73,2.004,9.8,3.572c0.013,0.005,0.029,0.012,0.044,0.02l0.013,0.006
				c3.29,1.686,6.203,3.86,8.256,6.721c0.013,0.02,0.028,0.04,0.041,0.06C773.228,213.112,773.764,219.125,772.523,222.853z"/>
			<path style="fill:#0B1119;" d="M725.199,237.271c-0.013,0.184-0.033,0.372-0.053,0.561c-0.136,1.255-0.334,2.415-0.585,3.493
				h26.943c0.846-0.837,1.8-1.631,2.901-2.364c2.681-1.789,5.536-3.257,8.205-4.895c3.417-2.096,6.526-4.47,8.575-8.152
				c0.517-0.929,0.966-1.946,1.337-3.06c1.241-3.729,0.705-9.741-1.218-12.498c-0.013-0.02-0.028-0.04-0.041-0.06
				c-2.053-2.861-4.966-5.035-8.256-6.721l-0.013-0.006c-0.015-0.009-0.031-0.015-0.044-0.02c-3.071-1.568-6.468-2.704-9.8-3.572
				c-2.464-0.643-4.897-1.138-7.134-1.549c-1.068-0.196-2.204-0.356-3.379-0.47c-0.639-0.059-1.292-0.108-1.951-0.14
				c-7.091-0.345-15.137,1.106-19.286,6.527c-1.165,1.513-2.022,3.339-2.468,5.521c-1.033,5.042,0.994,10.185,3.35,14.753
				C724.552,229.014,725.618,232.453,725.199,237.271z"/>
			<path style="fill:#FF74C7;" d="M827.966,345.753c-5.383,9.983-13.159,19.481-23.907,22.898
				c-10.752,3.421-24.591-1.606-27.616-12.555c-3.421-12.384,7.441-26.405,1.546-37.806c-2.581-4.991-7.941-8.041-13.412-9.166
				c-5.471-1.125-11.927-0.861-17.487-0.328c7.912,24.365,12.991,49.663,15.105,75.213c0.768,9.315,1.122,18.864-1.48,27.833
				c-2.602,8.969-8.641,17.381-17.34,20.612c-6.329,2.356-13.441,1.763-19.87-0.313c-7.101-2.291-13.997-6.783-16.864-13.725
				c-4.946-11.964,3.518-24.76,9.344-36.315c6.126-12.147,9.587-26.339,6.048-39.491c-1.098-4.082-2.831-7.926-4.751-11.697
				c-1.499-2.955-3.117-5.863-4.635-8.806c-5.799-11.235-10.304-23.456-10.603-36.118c-0.037-1.618,0.001-3.242,0.118-4.864
				c0.751-10.591,4.797-21.064,12.414-28.254c0.354-0.338,0.718-0.668,1.092-0.989l31.152,3.1c1.549,7.619,11.299,9.55,19.006,9.888
				c10.215,0.444,20.528,0.982,30.462,3.282c1.77,0.409,3.523,0.873,5.266,1.401c11.528,3.505,22.523,10.189,28.953,20.455
				C840.839,306.51,837.209,328.608,827.966,345.753z"/>
		</g>
		<g>
			<path style="fill:#E1D1C2;" d="M797.599,364.392c2.194,1.172,5.015,1.597,7.595,1.678c-1.174,2.141-1.762,4.568-1.552,6.962
				c0.31,3.534,2.133,6.722,3.2,10.099c2.082,6.59,1.158,14.071-2.487,20.118l-25.08-37.612l13.317-8.466
				C792.908,360.207,794.684,362.834,797.599,364.392z"/>
			<path style="fill:#E1D1C2;" d="M797.599,364.392c2.19,1.171,5.007,1.595,7.584,1.678c-1.169,2.142-1.75,4.572-1.54,6.962
				c0.31,3.534,2.133,6.722,3.2,10.099c2.082,6.59,1.158,14.071-2.487,20.118l-25.08-37.612l13.317-8.466
				C792.908,360.207,794.684,362.834,797.599,364.392z"/>
			<path style="fill:#E1D1C2;" d="M801.696,403.731l-24.416-36.617c-0.695-1.042-0.369-2.462,0.723-3.157l0,0
				c1.093-0.694,2.555-0.41,3.249,0.631l24.416,36.617c0.695,1.042,0.369,2.462-0.723,3.157l0,0
				C803.853,405.057,802.391,404.773,801.696,403.731z"/>
			
				<path style="fill:none;stroke:#AD9D8E;stroke-width:0.9268;stroke-linecap:round;stroke-linejoin:round;stroke-miterlimit:10;" d="
				M790.482,377.833c0,0,7.041-7.384-1.577-18.626"/>
		</g>
		<g>
			<path style="fill:#E1D1C2;" d="M729.163,424.709c2.303,0.363,4.932-0.13,7.241-0.852c-0.38,2.257-0.154,4.587,0.769,6.642
				c1.362,3.033,3.957,5.296,5.942,7.958c3.872,5.194,5.356,12.103,3.99,18.578l-33.783-25.584l9.186-11.594
				C723.721,422.448,726.103,424.227,729.163,424.709z"/>
			<path style="fill:#E1D1C2;" d="M729.163,424.709c2.3,0.362,4.924-0.128,7.231-0.849c-0.375,2.257-0.143,4.587,0.779,6.639
				c1.362,3.033,3.957,5.296,5.942,7.958c3.872,5.194,5.356,12.103,3.99,18.578l-33.783-25.584l9.186-11.594
				C723.721,422.448,726.103,424.227,729.163,424.709z"/>
			<path style="fill:#E1D1C2;" d="M744.899,458.28l-32.889-24.907c-0.936-0.709-1.085-2.066-0.331-3.018l0,0
				c0.754-0.951,2.136-1.15,3.071-0.441l32.889,24.907c0.936,0.709,1.085,2.066,0.331,3.018l0,0
				C747.216,458.79,745.834,458.988,744.899,458.28z"/>
			
				<path style="fill:none;stroke:#AD9D8E;stroke-width:0.8688;stroke-linecap:round;stroke-linejoin:round;stroke-miterlimit:10;" d="
				M726.999,438.801c0,0,3.961-8.705-7.129-16.006"/>
		</g>
		<path style="fill:#0B1119;" d="M728.704,225.362c-8.718,1.551-17.437,3.101-26.155,4.652c-5.314-8.594-7.452-18.775-8.939-28.769
			c8.892-1.702,17.521-4.555,26.54-5.343c9.019-0.788,19.23,1.979,23.763,9.816C740.565,214.945,736.134,218.947,728.704,225.362z"
			/>
		<path style="fill:#0B1119;" d="M775.69,225.541c8.523-2.401,17.047-4.803,25.57-7.204c1.041-10.05-1.469-20.147-4.483-29.791
			c-8.746,2.34-17.756,3.531-26.218,6.749c-8.462,3.219-16.448,10.157-17.115,19.186C760.475,221.33,766.207,223.003,775.69,225.541
			z"/>
		
			<path style="fill:none;stroke:#0B1119;stroke-width:1.1625;stroke-linecap:round;stroke-linejoin:round;stroke-miterlimit:10;" d="
			M763.664,293.773c-5.248,5.408-10.496,10.816-15.744,16.225"/>
		<path style="fill:#FCD6BE;" d="M746.997,164.609c0.12,4.507,3.115,8.809,7.301,10.485c4.186,1.676,9.322,0.631,12.52-2.548
			c-0.157-4.082-1.462-8.407-5.023-10.409C758.233,160.135,750.565,162.621,746.997,164.609z"/>
		
			<path style="fill:none;stroke:#F2E4D7;stroke-width:1.1625;stroke-linecap:round;stroke-linejoin:round;stroke-miterlimit:10;" d="
			M742.214,240.971c-3.028-4.668-5.487-10.146-4.628-15.644c0.859-5.497,6.221-10.529,11.632-9.236
			c4.745,1.133,7.95,6.458,12.825,6.639c3.193,0.118,6.038-2.118,7.886-4.725c1.848-2.607,3.001-5.646,4.762-8.313
			c5.207-7.885,16.007-11.549,24.937-8.461"/>
		
			<path style="fill:none;stroke:#F2E4D7;stroke-width:1.1625;stroke-linecap:round;stroke-linejoin:round;stroke-miterlimit:10;" d="
			M702.624,198.758c1.456,7.488,8.042,13.687,15.604,14.688c7.562,1.001,15.534-3.273,18.887-10.125
			c3.782,1.341,7.14,3.879,11.087,4.602s8.958-1.53,8.972-5.543"/>
	</g>
	<path style="fill:none;stroke:#F86A65;stroke-width:2.3249;stroke-linecap:round;stroke-linejoin:round;stroke-miterlimit:10;" d="
		M71.852,257.343c4.066,2.002,0.984,8.259,5.05,10.261c4.067,2.003,7.148-4.255,11.215-2.252c4.067,2.003,0.986,8.26,5.053,10.263
		c4.068,2.003,7.149-4.254,11.217-2.251c4.068,2.003,0.986,8.26,5.054,10.263"/>
	<path style="fill:none;stroke:#0B1119;stroke-width:1.7437;stroke-linecap:round;stroke-linejoin:round;stroke-miterlimit:10;" d="
		M409.582,271.981c4.066,2.002,0.984,8.259,5.05,10.261c4.067,2.003,7.148-4.255,11.215-2.252c4.067,2.003,0.986,8.26,5.053,10.263
		c4.068,2.003,7.149-4.254,11.217-2.251c4.068,2.003,0.987,8.26,5.054,10.263"/>
	<path style="fill:none;stroke:#0B1119;stroke-width:1.7437;stroke-linecap:round;stroke-linejoin:round;stroke-miterlimit:10;" d="
		M617.102,303.371c4.066,2.002,0.984,8.259,5.05,10.261c4.067,2.003,7.148-4.255,11.215-2.252c4.067,2.003,0.986,8.26,5.053,10.263
		c4.068,2.003,7.149-4.254,11.217-2.251c4.068,2.003,0.986,8.26,5.054,10.263"/>
	<path style="fill:none;stroke:#0B1119;stroke-width:1.7437;stroke-linecap:round;stroke-linejoin:round;stroke-miterlimit:10;" d="
		M88.978,413.045c4.531,0.088,4.396,7.061,8.927,7.148c4.532,0.088,4.667-6.886,9.2-6.798c4.533,0.088,4.398,7.061,8.931,7.149
		c4.533,0.087,4.668-6.886,9.201-6.798c4.533,0.087,4.399,7.061,8.932,7.149"/>
	<path style="fill:none;stroke:#0B1119;stroke-width:1.7437;stroke-linecap:round;stroke-linejoin:round;stroke-miterlimit:10;" d="
		M458.114,75.407c4.531,0.088,4.396,7.061,8.927,7.148c4.532,0.088,4.667-6.886,9.2-6.798c4.533,0.088,4.398,7.061,8.931,7.148
		c4.533,0.088,4.668-6.886,9.201-6.798c4.533,0.088,4.399,7.061,8.932,7.149"/>
	<path style="fill:none;stroke:#F86A65;stroke-width:2.3249;stroke-linecap:round;stroke-linejoin:round;stroke-miterlimit:10;" d="
		M269.776,389.303c4.531,0.087,4.396,7.061,8.927,7.148c4.532,0.088,4.667-6.886,9.2-6.798c4.533,0.088,4.398,7.061,8.931,7.148
		c4.533,0.088,4.668-6.886,9.201-6.798c4.533,0.088,4.399,7.061,8.932,7.149"/>
	<path style="fill:none;stroke:#0B1119;stroke-width:1.7437;stroke-linecap:round;stroke-linejoin:round;stroke-miterlimit:10;" d="
		M283.817,113.708c3.712-2.6,7.713,3.113,11.425,0.513c3.713-2.601-0.288-8.313,3.425-10.914c3.713-2.601,7.715,3.112,11.428,0.511
		c3.714-2.601-0.287-8.314,3.426-10.915c3.714-2.601,7.715,3.112,11.429,0.51"/>
	<path style="fill:none;stroke:#F86A65;stroke-width:2.3249;stroke-linecap:round;stroke-linejoin:round;stroke-miterlimit:10;" d="
		M616.469,96.052c3.712-2.6,7.713,3.113,11.425,0.513c3.713-2.601-0.288-8.314,3.425-10.914c3.713-2.601,7.715,3.112,11.428,0.511
		c3.714-2.601-0.288-8.314,3.426-10.915c3.714-2.601,7.715,3.112,11.429,0.511"/>
	<path style="fill:none;stroke:#F86A65;stroke-width:2.3249;stroke-linecap:round;stroke-linejoin:round;stroke-miterlimit:10;" d="
		M829.346,232.643c3.712-2.6,7.713,3.113,11.425,0.513c3.713-2.601-0.288-8.314,3.425-10.914c3.713-2.601,7.715,3.112,11.428,0.511
		c3.714-2.601-0.287-8.314,3.426-10.915c3.714-2.601,7.715,3.112,11.429,0.511"/>
	<path style="fill:none;stroke:#C8C7F9;stroke-width:2.9062;stroke-linecap:round;stroke-linejoin:round;stroke-miterlimit:10;" d="
		M77.924,113.147c1.382,6.734,4.658,13.026,9.26,18.119"/>
	<path style="fill:none;stroke:#C8C7F9;stroke-width:2.9062;stroke-linecap:round;stroke-linejoin:round;stroke-miterlimit:10;" d="
		M80.779,297.095c-1.729,7.302-7.136,13.634-14.077,16.484"/>
	<path style="fill:none;stroke:#C8C7F9;stroke-width:2.9062;stroke-linecap:round;stroke-linejoin:round;stroke-miterlimit:10;" d="
		M288.259,343.229c3.27,6.824,10.644,11.472,18.211,11.48"/>
	<path style="fill:none;stroke:#C8C7F9;stroke-width:2.9062;stroke-linecap:round;stroke-linejoin:round;stroke-miterlimit:10;" d="
		M248.882,411.261c-1.402,4.882-4.988,9.091-9.585,11.252"/>
	<path style="fill:none;stroke:#C8C7F9;stroke-width:2.9062;stroke-linecap:round;stroke-linejoin:round;stroke-miterlimit:10;" d="
		M195.286,75.391c2.404,8.664,10.424,15.476,19.363,16.447"/>
	<path style="fill:none;stroke:#C8C7F9;stroke-width:2.9062;stroke-linecap:round;stroke-linejoin:round;stroke-miterlimit:10;" d="
		M416.607,59.976c-0.821,6.497-5.023,12.472-10.86,15.443"/>
	<path style="fill:none;stroke:#C8C7F9;stroke-width:2.9062;stroke-linecap:round;stroke-linejoin:round;stroke-miterlimit:10;" d="
		M403.101,337.17c-0.096,5.165,2.764,10.284,7.214,12.909"/>
	<path style="fill:none;stroke:#C8C7F9;stroke-width:2.9062;stroke-linecap:round;stroke-linejoin:round;stroke-miterlimit:10;" d="
		M623.108,249.163c-1.936,7.949-8.132,14.725-15.877,17.363"/>
	<path style="fill:none;stroke:#C8C7F9;stroke-width:2.9062;stroke-linecap:round;stroke-linejoin:round;stroke-miterlimit:10;" d="
		M706.539,69.532c0.245,7.733,5.241,15.121,12.326,18.229"/>
	<path style="fill:none;stroke:#C8C7F9;stroke-width:2.9062;stroke-linecap:round;stroke-linejoin:round;stroke-miterlimit:10;" d="
		M588.039,38.994c-4.317,4.511-10.317,7.372-16.54,7.885"/>
	<path style="fill:none;stroke:#C8C7F9;stroke-width:2.9062;stroke-linecap:round;stroke-linejoin:round;stroke-miterlimit:10;" d="
		M848.821,357.255c-3.269,9.576,0.413,21.087,8.633,26.988"/>
	<path style="fill:none;stroke:#FF9E00;stroke-width:2.9062;stroke-linecap:round;stroke-linejoin:round;stroke-miterlimit:10;" d="
		M143.328,109.613c-1.187,7.223-5.735,13.823-12.062,17.504"/>
	<path style="fill:none;stroke:#FF9E00;stroke-width:2.9062;stroke-linecap:round;stroke-linejoin:round;stroke-miterlimit:10;" d="
		M57.323,429.698c-5.165,8.506-4.144,20.31,2.405,27.802"/>
	<path style="fill:none;stroke:#FF9E00;stroke-width:2.9062;stroke-linecap:round;stroke-linejoin:round;stroke-miterlimit:10;" d="
		M258.574,59.032c5.291,7.819,12.96,14.006,21.721,17.525"/>
	<path style="fill:none;stroke:#FF9E00;stroke-width:2.9062;stroke-linecap:round;stroke-linejoin:round;stroke-miterlimit:10;" d="
		M294.6,269.328c-3.733,8.029-10.539,14.582-18.703,18.009"/>
	<g>
		<g>
			<g>
				<path style="fill:#C25B37;" d="M320.793,198.64l-38.324,20.518l6.53,0.425l-44.081-23.158c-1.621-0.878-3.263-1.257-4.141,0.363
					c-0.799,1.475-0.579,2.512,0.727,3.487l40.195,30.703c1.715,1.285,3.903,1.494,5.754,0.743l0.777-0.318l40.241-16.441
					c4.617-1.886,6.831-7.159,4.944-11.776c-1.886-4.617-7.159-6.831-11.776-4.944C321.352,198.359,321.063,198.496,320.793,198.64z
					"/>
				<path style="fill:#12A6B4;" d="M333.416,203.186c-1.887-4.617-7.159-6.831-11.776-4.945c-0.289,0.118-0.578,0.255-0.847,0.398
					l-16.538,8.854c0.956,5.34,2.319,10.578,3.957,15.746l20.259-8.277C333.089,213.075,335.302,207.803,333.416,203.186z"/>
				<path style="fill:#C25B37;" d="M232.802,198.686c0.093-0.985,4.327-0.421,4.327-0.421s-5.459-1.088-5.52-1.839
					c-0.095-1.187,6.088,0.149,6.088,0.149s-6.689-1.628-6.187-2.851c0.502-1.224,6.916,1.15,6.916,1.15s-5.883-2.613-5.275-3.588
					c0.608-0.975,8.057,2.693,8.057,2.693s-1.659-3.882-0.883-4.3c1.029-0.554,3.642,4.326,4.713,6.438
					c0.309,0.609,0.476,1.277,0.492,1.959l0.008,0.323c0.05,2.072-1.873,3.629-3.889,3.148
					C237.859,200.645,232.743,199.307,232.802,198.686z"/>
			</g>
			<path style="fill:#C25B37;" d="M362.705,209.964c1.032,0.975,2.219,1.684,3.475,2.132c3.616,1.289,7.811,0.422,10.613-2.553
				l0.149-0.156l0-0.004l33.123-35.155l0.777-0.826c1.55-1.645,2.186-3.855,1.934-5.938l-0.382-3.039l-2.035-16.104l-3.857-30.511
				c-0.046-0.363-0.15-0.705-0.3-1.02c-0.606-1.28-1.983-2.087-3.465-1.901c-1.543,0.197-2.707,1.408-2.913,2.874l-0.011,0.077
				l-3.212,22.828l-1.956,13.886l-1.157,8.207l-4.232,4.491L380,177.077l-15.9,16.877l-0.004,0l-1.345,1.432l-0.463,0.491
				C358.512,199.883,358.702,206.191,362.705,209.964z"/>
			<path style="fill:#12A6B4;" d="M376.83,180.442l-12.73,13.512l-0.004,0l-1.345,1.432l-0.463,0.491
				c-3.776,4.007-3.586,10.315,0.417,14.087c1.032,0.975,2.219,1.684,3.475,2.132c3.616,1.289,7.811,0.422,10.613-2.553l0.149-0.155
				l0-0.004l8.214-8.718C382.052,194.073,379.365,187.291,376.83,180.442z"/>
			<path style="fill:#C25B37;" d="M347.474,181.116c0.223,5.04,1.693,10.027,4.252,14.418c-0.92,1.487-2.714,2.075-4.428,2.55
				c-1.714,0.475-3.518,0.135-5.301,0.116c-3.229-0.036-5.561-0.441-6.56-2.564c0.454-0.667,1.497-3.372,2.053-4.919
				c0.952-2.652-0.249-5.712-1.787-8.101C339.469,182.327,343.796,181.945,347.474,181.116z"/>
			<path style="fill:#12A6B4;" d="M313.969,214.792c0.161,0.624,0.364,1.243,0.613,1.861l4.215,10.428l3.969,9.825l4.357,10.783
				l4.417,10.934l0.003,0.011l1.491,3.685l0,0.004l4.078-0.278l0.004,0l0.011-0.003l4.629-0.315l0.014,0.001L352.479,261
				l14.711-0.999l0.322-1.655l0-0.003l0.062-0.323l-2.443-1.871l6.788-20.452l0.003,0l4.791-24.62
				c0.109-0.568,0.186-1.127,0.228-1.688l0-0.004c0.598-7.792-5.189-14.615-12.843-15.43l-0.004,0
				c-0.507-0.053-1.026-0.082-1.551-0.076c-0.103-0.001-0.202,0.001-0.305,0.003c-0.145,0.003-0.291,0.007-0.436,0.014
				c-0.163,0.01-0.323,0.02-0.487,0.033l-8.089,0.683l-1.931,0.164l-15.605,1.324l-1.92,0.161l-5.169,0.437l-1.849,0.157
				c-0.284,0.025-0.569,0.057-0.844,0.1c-0.004,0-0.004,0-0.007,0C317.362,198.169,311.865,206.585,313.969,214.792z"/>
			<path style="fill:#00D3CD;" d="M364.5,193.892"/>
			<path style="fill:#C25B37;" d="M401.991,103.572c-1.122,0.124-0.403,4.947-0.403,4.947s-1.339-6.213-2.199-6.268
				c-1.357-0.088,0.279,6.948,0.279,6.948s-1.978-7.607-3.366-7.012c-1.388,0.595,1.437,7.875,1.437,7.875s-3.088-6.669-4.191-5.958
				c-1.102,0.711,3.219,9.149,3.219,9.149s-4.461-1.824-4.924-0.931c-0.781,1.507,8.52,5.782,8.52,5.782l6.164,0.053
				C406.527,118.155,403.113,103.448,401.991,103.572z"/>
			<g>
				<path style="fill:#C25B37;" d="M338.566,187.165L338.566,187.165c4.109,1.069,8.282-1.361,9.273-5.399l1.801-7.343
					c0.991-4.038-1.561-8.217-5.671-9.286l0,0c-4.109-1.069-8.282,1.361-9.272,5.399l-1.801,7.343
					C331.905,181.917,334.457,186.096,338.566,187.165z"/>
				<path style="fill:#C25B37;" d="M346.752,178.978c-0.964,2.164-0.307,4.56,1.469,5.352c1.776,0.791,3.997-0.322,4.961-2.487
					c0.964-2.164,0.307-4.56-1.469-5.351C349.938,175.701,347.717,176.814,346.752,178.978z"/>
				<path style="fill:#0B1119;" d="M348.874,177.611c-2.782-1.81-4.259-5.422-3.543-8.663c-4.868,0.506-9.925-0.353-14.179-2.772
					c-9.294-5.284-15.125-24.585-4.673-31.711c3.46-2.359,8.357-2.794,11.75-0.074c3.844,3.083,4.762,8.504,5.001,13.426
					c0.152,3.131,0.141,6.27-0.034,9.4c1.78-1.114,4.339-0.758,5.747,0.801c1.408,1.559,1.504,4.14,0.215,5.798
					c1.448-0.375,3.303,1.04,3.803,2.449c0.499,1.41,0.266,2.962,0,4.434C352.555,172.94,350.516,176.033,348.874,177.611z"/>
			</g>
			<path style="fill:#FFF8F3;" d="M336.001,178.015c-0.328,1.346,0.461,2.73,1.836,3.152c1.375,0.422,2.832-0.274,3.349-1.562
				L336.001,178.015z"/>
		</g>
		<path style="fill:#12A6B4;" d="M376.356,266.608c0.076,0.067,0.15,0.138,0.224,0.211c0.746-21.27-0.107-41.61-6.459-62.032
			c-16.629,1.893-38.901,3.67-55.53,5.562c6.435,18.648,9.629,38.41,9.394,58.136c-0.063,5.296-0.352,10.73,1.335,15.752
			c1.687,5.021,5.922,9.616,11.211,9.901c5.301,0.286,9.951-3.768,12.581-8.379c2.63-4.612,3.851-9.89,6.156-14.673
			c2.305-4.783,6.201-9.34,11.448-10.153C370.725,260.311,375.146,263.02,376.356,266.608z"/>
		<path style="fill:#0B1119;" d="M342.256,371.349c17.581,10.293,38.636,26.721,53.199,40.967c0.756-7.451,6.832-6.142,3.168-12.673
			c-18.218-32.475-32.946-40.824-46.317-51.984C351.152,356.094,343.41,362.913,342.256,371.349z"/>
		<g>
			<path style="fill:#E1D1C2;" d="M348.655,441.164c-1.932-0.675-3.762-2.146-5.249-3.663c-0.642,1.904-1.784,3.613-3.35,4.82
				c-2.312,1.782-5.259,2.456-7.898,3.692c-5.15,2.413-9.164,7.142-10.793,12.719l36.75-5.781l-2.298-12.781
				C353.804,441.672,351.223,442.061,348.655,441.164z"/>
			<path style="fill:#E1D1C2;" d="M348.655,441.164c-1.93-0.674-3.757-2.142-5.243-3.656c-0.646,1.902-1.792,3.608-3.356,4.813
				c-2.312,1.782-5.259,2.456-7.898,3.692c-5.15,2.413-9.164,7.142-10.793,12.719l36.75-5.781l-2.298-12.781
				C353.804,441.672,351.223,442.061,348.655,441.164z"/>
			<path style="fill:#E1D1C2;" d="M322.555,460.611l35.778-5.628c1.018-0.16,1.696-1.149,1.508-2.197l0,0
				c-0.189-1.049-1.175-1.775-2.193-1.615l-35.778,5.628c-1.018,0.16-1.696,1.149-1.508,2.198l0,0
				C320.551,460.044,321.537,460.771,322.555,460.611z"/>
			
				<path style="fill:none;stroke:#AD9D8E;stroke-width:0.7627;stroke-linecap:round;stroke-linejoin:round;stroke-miterlimit:10;" d="
				M344.485,452.965c0,0,0.546-8.378,12.155-9.427"/>
		</g>
		<g>
			<path style="fill:#E1D1C2;" d="M395.329,403.995c-1.301,1.58-3.315,2.787-5.253,3.658c1.564,1.261,2.773,2.924,3.363,4.81
				c0.872,2.786,0.485,5.783,0.732,8.687c0.482,5.667,3.531,11.069,8.2,14.527l7.288-36.481l-12.787-2.265
				C397.586,399.34,397.058,401.896,395.329,403.995z"/>
			<path style="fill:#E1D1C2;" d="M395.329,403.995c-1.3,1.577-3.309,2.784-5.244,3.654c1.561,1.263,2.765,2.929,3.355,4.814
				c0.872,2.786,0.485,5.783,0.732,8.687c0.482,5.667,3.531,11.069,8.2,14.527l7.288-36.481l-12.787-2.265
				C397.586,399.34,397.058,401.896,395.329,403.995z"/>
			<path style="fill:#E1D1C2;" d="M404.546,435.211l7.095-35.516c0.202-1.01-0.491-1.989-1.54-2.175l0,0
				c-1.049-0.186-2.072,0.489-2.274,1.499l-7.095,35.516c-0.202,1.01,0.491,1.989,1.54,2.175l0,0
				C403.321,436.896,404.345,436.221,404.546,435.211z"/>
			
				<path style="fill:none;stroke:#AD9D8E;stroke-width:0.7627;stroke-linecap:round;stroke-linejoin:round;stroke-miterlimit:10;" d="
				M404.958,411.991c0,0-7.672-3.41-4.64-14.666"/>
		</g>
		
			<path style="fill:none;stroke:#E1D1C2;stroke-width:0.5812;stroke-linecap:round;stroke-linejoin:round;stroke-miterlimit:10;" d="
			M335.431,310.836c3.147,6.003,6.806,11.738,10.925,17.121c-0.352,11.452,0.472,23.099,1.941,34.462"/>
		
			<path style="fill:none;stroke:#E1D1C2;stroke-width:0.5812;stroke-linecap:round;stroke-linejoin:round;stroke-miterlimit:10;" d="
			M361.898,269.028c2.022,7.695,5.823,14.917,11.02,20.941c1.016,18.814-1.36,37.792-7.027,55.761
			c1.841,4.128,1.173,8.372-1.606,11.936c0.304,27.887-4.718,55.121-14.793,82.439"/>
		
			<path style="fill:none;stroke:#0B1119;stroke-width:1.1625;stroke-linecap:round;stroke-linejoin:round;stroke-miterlimit:10;" d="
			M323.232,253.148c2.801-2.269,5.654-4.571,8.99-5.935c3.336-1.365,7.287-1.682,10.467,0.014c5.034,2.684,6.487,9.584,4.781,15.028
			c-1.706,5.444-5.765,9.773-9.661,13.94c-3.896,4.167-7.88,8.6-9.368,14.107"/>
		
			<path style="fill:none;stroke:#0B1119;stroke-width:1.1625;stroke-linecap:round;stroke-linejoin:round;stroke-miterlimit:10;" d="
			M324.272,197.359c-1.32,4.918-0.635,10.404,2.126,14.682c2.761,4.278,7.628,7.205,12.719,7.332
			c5.09,0.127,10.221-2.683,12.598-7.186c1.568-2.97,1.921-6.407,2.786-9.652c0.866-3.245,2.509-6.602,5.562-8.003"/>
		
			<path style="fill:none;stroke:#0B1119;stroke-width:1.1625;stroke-linecap:round;stroke-linejoin:round;stroke-miterlimit:10;" d="
			M373.58,223.292c-5.304,0.903-10.039,4.635-12.156,9.581s-1.548,10.949,1.46,15.409c3.008,4.46,8.361,7.237,13.74,7.128"/>
		
			<path style="fill:none;stroke:#FF9E00;stroke-width:2.9062;stroke-linecap:round;stroke-linejoin:round;stroke-miterlimit:10;" d="
			M281.935,425.282c2.372,5.149,7.569,8.885,13.206,9.492"/>
		
			<path style="fill:none;stroke:#FF9E00;stroke-width:2.9062;stroke-linecap:round;stroke-linejoin:round;stroke-miterlimit:10;" d="
			M431.139,186.351c-2.566,6.897-7.598,12.848-13.975,16.522"/>
	</g>
	<path style="fill:none;stroke:#FF9E00;stroke-width:2.9062;stroke-linecap:round;stroke-linejoin:round;stroke-miterlimit:10;" d="
		M531.495,371.102c5.492,7.768,14.056,13.3,23.395,15.114"/>
	<path style="fill:none;stroke:#FF9E00;stroke-width:2.9062;stroke-linecap:round;stroke-linejoin:round;stroke-miterlimit:10;" d="
		M777.174,84.364c1.584,7.588,6.057,14.536,12.308,19.119"/>
	<path style="fill:none;stroke:#FF9E00;stroke-width:2.9062;stroke-linecap:round;stroke-linejoin:round;stroke-miterlimit:10;" d="
		M860.952,297.937c1.355,5.365,4.882,10.147,9.607,13.027"/>
	<path style="fill:none;stroke:#FF9E00;stroke-width:2.9062;stroke-linecap:round;stroke-linejoin:round;stroke-miterlimit:10;" d="
		M803.397,432.199c-2.838,4.823-6.734,9.019-11.333,12.205"/>
	
		<polygon style="fill:none;stroke:#91D8CA;stroke-width:2.3249;stroke-linecap:round;stroke-linejoin:round;stroke-miterlimit:10;" points="
		111.225,89.239 118.779,90.489 126.333,91.74 121.473,97.656 116.613,103.573 113.919,96.406 	"/>
	
		<polygon style="fill:none;stroke:#91D8CA;stroke-width:2.3249;stroke-linecap:round;stroke-linejoin:round;stroke-miterlimit:10;" points="
		372.085,63.156 379.639,64.407 387.193,65.657 382.333,71.574 377.473,77.49 374.779,70.323 	"/>
	
		<polygon style="fill:none;stroke:#91D8CA;stroke-width:2.3249;stroke-linecap:round;stroke-linejoin:round;stroke-miterlimit:10;" points="
		732.932,135.841 740.485,137.092 748.039,138.342 743.179,144.259 738.319,150.175 735.625,143.008 	"/>
	
		<polygon style="fill:none;stroke:#91D8CA;stroke-width:2.3249;stroke-linecap:round;stroke-linejoin:round;stroke-miterlimit:10;" points="
		648.965,40.789 656.519,42.039 664.073,43.29 659.213,49.206 654.353,55.123 651.659,47.956 	"/>
	
		<polygon style="fill:none;stroke:#91D8CA;stroke-width:2.3249;stroke-linecap:round;stroke-linejoin:round;stroke-miterlimit:10;" points="
		850.343,80.648 849.282,88.231 848.221,95.814 842.185,91.104 836.148,86.393 843.246,83.521 	"/>
	
		<polygon style="fill:none;stroke:#91D8CA;stroke-width:2.3249;stroke-linecap:round;stroke-linejoin:round;stroke-miterlimit:10;" points="
		681.422,362.523 680.361,370.106 679.3,377.689 673.264,372.978 667.227,368.268 674.325,365.396 	"/>
	
		<polygon style="fill:none;stroke:#91D8CA;stroke-width:2.3249;stroke-linecap:round;stroke-linejoin:round;stroke-miterlimit:10;" points="
		843.004,419.484 841.943,427.067 840.882,434.649 834.846,429.939 828.81,425.228 835.907,422.356 	"/>
	
		<polygon style="fill:none;stroke:#91D8CA;stroke-width:2.3249;stroke-linecap:round;stroke-linejoin:round;stroke-miterlimit:10;" points="
		215.847,38.09 223.401,39.341 230.954,40.592 226.094,46.508 221.234,52.425 218.541,45.257 	"/>
	<g>
		<path style="fill:#C25B37;" d="M543.74,210.514c1.134,3.408,3.617,6.566,7.036,8.395c10.172,5.438,23.069-1.988,32.625-5.686
			c8.838-3.42,17.736-7.711,26.832-10.384c0,0,1.019-0.3,1.019-0.3c2.42-0.72,4.417-2.658,5.097-5.284l14.929-57.669
			c0.068-0.26,0.111-0.52,0.127-0.78c0.114-1.744-0.872-3.452-2.573-4.168c-1.465-0.617-3.082-0.349-4.249,0.569
			c-0.55,0.424-0.997,0.994-1.285,1.68l-14.642,34.682l-6.491,15.37l-10.233,1.894l-16.123,2.983l-14.904,2.759l-8.757,1.623
			c-0.38,0.069-0.773,0.165-1.153,0.275C543.671,198.591,541.869,204.891,543.74,210.514z"/>
		<path style="fill:#C25B37;" d="M532.683,167.481l0.631,10.514c0.091,1.529,0.476,2.953,1.086,4.216
			c1.54,3.193,4.523,5.341,7.905,5.442c0.346,0.013,0.695,0,1.047-0.032c5.174-0.486,9.121-5.618,8.775-11.401l-0.199-3.326
			l-0.069-1.146l-0.366-6.042c-0.33-5.486-4.409-9.664-9.245-9.664c-0.263,0-0.526,0.013-0.792,0.038
			c-4.412,0.417-7.935,4.213-8.658,8.909C532.672,165.798,532.631,166.632,532.683,167.481z"/>
		<path style="fill:#C25B37;" d="M534.76,179.906c-0.538,5.754-2.5,11.377-5.674,16.256c0.969,1.753,2.988,2.526,4.923,3.165
			c1.935,0.639,4.018,0.352,6.058,0.43c3.695,0.14,6.386-0.193,7.649-2.565c-0.482-0.789-1.524-3.941-2.073-5.743
			c-0.941-3.087,0.606-6.52,2.499-9.167C543.851,181.74,538.922,181.061,534.76,179.906z"/>
		<path style="fill:#FCEAD4;" d="M542.011,177.354c0.298,1.634,1.839,2.764,3.55,2.553c1.711-0.21,2.966-1.684,2.903-3.347
			L542.011,177.354z"/>
		<path style="fill:#C25B37;" d="M570.396,222.407l-23.67,51.212l-38.949-4.57l-8.149-56.509
			c-1.567-10.867,7.693-20.217,18.574-18.757l39.379,5.287C568.618,200.553,575.068,212.298,570.396,222.407z"/>
		<path style="fill:#00D3CD;" d="M514.565,193.567"/>
		<path style="fill:#C25B37;" d="M639.146,127.706c-0.899-0.93-4.763,3.104-4.763,3.104s4.687-5.57,4.135-6.387
			c-0.872-1.29-6.096,5.125-6.096,5.125s5.502-7.126,3.99-7.966c-1.513-0.84-6.124,6.824-6.124,6.824s3.874-7.474,2.457-7.973
			c-1.417-0.5-6.029,9.332-6.029,9.332s-1.477-5.32-2.61-5.113c-1.504,0.275-0.186,7.394,0.446,10.425
			c0.182,0.874,0.557,1.693,1.097,2.403l0.256,0.336c1.641,2.157,4.877,2.176,6.544,0.038
			C635.58,133.836,639.713,128.292,639.146,127.706z"/>
		<path style="fill:#C25B37;" d="M447.217,120.866c1.18-0.349,2.116,4.659,2.116,4.659s-0.788-6.624,0.064-7.037
			c1.344-0.654,2.115,6.897,2.115,6.897s-0.622-8.252,0.99-8.251c1.612,0,1.263,8.286,1.263,8.286s0.827-7.8,2.189-7.568
			c1.362,0.233-0.103,10.276-0.103,10.276s3.89-3.648,4.667-2.97c1.312,1.144-6.636,9.208-6.636,9.208l-6.227,2.631
			C447.655,136.997,446.037,121.215,447.217,120.866z"/>
		<path style="fill:#C25B37;" d="M509.328,213.736l-45.901-20.538l-1.072-0.48c-2.14-0.958-3.547-2.847-4.01-4.986l-10.783-51.083
			c-0.401-1.9,0.856-3.881,2.807-4.426c1.629-0.455,3.228,0.238,3.945,1.585l24.175,45.446l-5.082-5.465l45.901,20.538
			c5.206,2.33,7.193,8.563,4.437,13.923C520.99,213.609,514.535,216.066,509.328,213.736z"/>
		<path style="fill:#C8C7F9;" d="M586.224,212.103c-1.878-7.017-3.15-14.2-4.23-21.432l-6.184,1.144l-14.904,2.759l-8.757,1.623
			c-0.38,0.069-0.773,0.165-1.153,0.275c-0.72,0.208-1.371,0.467-1.985,0.752l-32.429-4.34c-0.218-0.029-0.434-0.046-0.65-0.068
			l-22.194-9.93c-3.407,6.445-5.523,13.573-6.574,20.932l9.719,4.349c-0.113,1.29-0.079,2.62,0.125,3.974l8.797,58.224l41.187,4.833
			l24.855-52.666c0.794-1.682,1.275-3.41,1.483-5.13c3.569-1.41,6.994-2.987,10.072-4.178
			C584.341,212.859,585.282,212.484,586.224,212.103z"/>
		<rect x="532.823" y="338.668" style="fill:#F78C00;" width="0" height="0"/>
		<path style="fill:#0B1119;" d="M531.466,177.23c4.052-3.056,6.28-8.811,5.482-14.157c3.886,3.98,9.457,4.917,14.202,2.309
			c7.728-4.247,16.689-3.551,22.168-10.916c5.48-7.365,7.805-17.474,6.172-26.834c-0.536-3.074-1.602-6.256-3.899-8.089
			c-4.198-3.35-10.456-0.417-13.349,4.327c-2.893,4.744-3.51,10.673-4.758,16.224c-1.248,5.551-3.619,11.419-8.344,13.762
			c-5.284,2.621-12.336,0.205-16.612,4.521C528.647,162.297,529.669,171.772,531.466,177.23z"/>
		<path style="fill:#C25B37;" d="M534.453,172.929c0.988,2.546-0.004,5.306-2.215,6.164c-2.211,0.858-4.805-0.51-5.793-3.057
			c-0.988-2.546,0.004-5.306,2.215-6.164C530.872,169.015,533.465,170.383,534.453,172.929z"/>
		<path style="fill:#0B1119;" d="M507.227,270.39c-14.651,30.443-29.676,62.824-26.503,96.46
			c2.354,24.953,16.607,46.816,29.964,68.025c3.487-0.775,4.65,0.775,8.137,0c-0.55-25.185-5.956-51.414-16.582-74.254
			c10.271-21.282,20.303-41.809,28.09-64.119c16.255,21.314,32.203,44.156,45.916,67.188c16.506,27.723,35.127,54.375,61.922,72.348
			l14.357,1.496c-10.209-32.291-30.191-62.133-56.427-83.547c-0.676-32.667-19.664-64.795-48.509-80.141L507.227,270.39z"/>
		<g>
			<path style="fill:#E1D1C2;" d="M510.262,429.285c-2.249-1.063-4.272-3.075-5.875-5.098c-1.019,2.219-2.618,4.138-4.665,5.396
				c-3.022,1.857-6.669,2.295-10.016,3.451c-6.533,2.257-11.988,7.458-14.671,13.989l45.15-2.284L519.044,429
				C516.419,430.557,513.25,430.697,510.262,429.285z"/>
			<path style="fill:#E1D1C2;" d="M510.262,429.285c-2.245-1.061-4.266-3.069-5.868-5.089c-1.023,2.215-2.627,4.131-4.672,5.387
				c-3.022,1.857-6.669,2.295-10.016,3.451c-6.533,2.257-11.988,7.458-14.671,13.989l45.15-2.284L519.044,429
				C516.419,430.557,513.25,430.697,510.262,429.285z"/>
			<path style="fill:#E1D1C2;" d="M476.234,449.445l43.955-2.224c1.25-0.063,2.197-1.171,2.103-2.462l0,0
				c-0.094-1.291-1.193-2.296-2.444-2.233l-43.955,2.224c-1.25,0.063-2.197,1.171-2.103,2.463l0,0
				C473.884,448.504,474.983,449.508,476.234,449.445z"/>
			
				<path style="fill:none;stroke:#AD9D8E;stroke-width:0.9268;stroke-linecap:round;stroke-linejoin:round;stroke-miterlimit:10;" d="
				M503.712,443.011c0,0,1.731-10.055,15.895-9.837"/>
		</g>
		<g>
			<path style="fill:#E1D1C2;" d="M643.632,433.934c2.249-1.063,4.272-3.075,5.875-5.098c1.019,2.219,2.618,4.138,4.665,5.396
				c3.022,1.857,6.669,2.295,10.016,3.451c6.533,2.257,11.988,7.458,14.67,13.989l-45.15-2.284l1.141-15.739
				C637.476,435.207,640.644,435.346,643.632,433.934z"/>
			<path style="fill:#E1D1C2;" d="M643.632,433.934c2.245-1.061,4.266-3.069,5.868-5.089c1.023,2.215,2.627,4.131,4.672,5.387
				c3.022,1.857,6.669,2.295,10.016,3.451c6.533,2.257,11.988,7.458,14.67,13.989l-45.15-2.284l1.141-15.739
				C637.476,435.207,640.644,435.346,643.632,433.934z"/>
			<path style="fill:#E1D1C2;" d="M677.661,454.095l-43.955-2.224c-1.25-0.063-2.197-1.171-2.103-2.462l0,0
				c0.094-1.291,1.193-2.296,2.444-2.233l43.955,2.224c1.251,0.063,2.197,1.171,2.103,2.463l0,0
				C680.011,453.154,678.911,454.158,677.661,454.095z"/>
			
				<path style="fill:none;stroke:#AD9D8E;stroke-width:0.9268;stroke-linecap:round;stroke-linejoin:round;stroke-miterlimit:10;" d="
				M650.182,447.661c0,0-1.731-10.055-15.895-9.836"/>
		</g>
		
			<path style="fill:none;stroke:#E1D1C2;stroke-width:0.5812;stroke-linecap:round;stroke-linejoin:round;stroke-miterlimit:10;" d="
			M508.223,275.279c11.048,6.328,25.21,6.867,36.707,1.397c24.189,21.38,41.87,50.88,48.419,82.492
			c24.443,19.767,43.915,45.047,56.67,73.777"/>
		
			<path style="fill:none;stroke:#E1D1C2;stroke-width:0.5812;stroke-linecap:round;stroke-linejoin:round;stroke-miterlimit:10;" d="
			M525.091,294.422c-9.941,21.972-19.882,43.944-29.822,65.916c12.182,19.714,18.973,42.705,20.675,65.816"/>
		
			<path style="fill:none;stroke:#F2E4D7;stroke-width:1.1625;stroke-linecap:round;stroke-linejoin:round;stroke-miterlimit:10;" d="
			M506.932,189.084c-1.413,7.438,1.517,15.542,7.36,20.356c5.843,4.814,14.358,6.14,21.388,3.329
			c8.009-3.202,13.79-11.129,22.23-12.906c3.724-0.784,7.622-0.268,11.36-0.984c3.738-0.716,7.629-3.311,7.844-7.11"/>
		
			<path style="fill:none;stroke:#F2E4D7;stroke-width:1.1625;stroke-linecap:round;stroke-linejoin:round;stroke-miterlimit:10;" d="
			M498.063,223.531c4.569-2.859,10.694,0.489,13.789,4.902c3.094,4.413,4.611,9.865,8.185,13.899
			c5.358,6.047,15.18,7.521,22.078,3.313c3.654-2.229,6.372-5.729,9.914-8.132c3.542-2.403,8.711-3.452,11.884-0.579"/>
		
			<path style="fill:none;stroke:#F2E4D7;stroke-width:1.1625;stroke-linecap:round;stroke-linejoin:round;stroke-miterlimit:10;" d="
			M499.635,243.667c5.371-1.966,11.133,1.979,14.635,6.501c3.502,4.522,6.117,9.995,10.939,13.07
			c3.852,2.457,8.669,3.024,13.205,2.478c4.536-0.545,8.876-2.118,13.169-3.68"/>
		
			<path style="fill:none;stroke:#F2E4D7;stroke-width:1.1625;stroke-linecap:round;stroke-linejoin:round;stroke-miterlimit:10;" d="
			M583.752,204.598c-6.923-2.496-15.388,0.367-19.375,6.552c-3.987,6.186-3.099,15.077,2.032,20.351"/>
		
			<path style="fill:none;stroke:#FF9E00;stroke-width:2.9062;stroke-linecap:round;stroke-linejoin:round;stroke-miterlimit:10;" d="
			M676.084,240.393c-2.131,6.747-7.935,12.207-14.8,13.922"/>
		
			<polygon style="fill:none;stroke:#91D8CA;stroke-width:2.3249;stroke-linecap:round;stroke-linejoin:round;stroke-miterlimit:10;" points="
			433.386,402.237 440.939,403.488 448.493,404.738 443.633,410.655 438.773,416.571 436.079,409.404 		"/>
	</g>
	
		<polygon style="fill:none;stroke:#91D8CA;stroke-width:2.3249;stroke-linecap:round;stroke-linejoin:round;stroke-miterlimit:10;" points="
		44.138,295.553 45.28,287.982 46.423,280.411 52.408,285.186 58.394,289.961 51.266,292.757 	"/>
	
		<polygon style="fill:none;stroke:#91D8CA;stroke-width:2.3249;stroke-linecap:round;stroke-linejoin:round;stroke-miterlimit:10;" points="
		233.792,461.91 234.935,454.339 236.077,446.768 242.063,451.543 248.048,456.318 240.92,459.114 	"/>
</g>
</svg>
