<?xml version="1.0" encoding="utf-8"?>
<!-- Generator: Adobe Illustrator 27.5.0, SVG Export Plug-In . SVG Version: 6.00 Build 0)  -->
<svg version="1.1" id="Layer_1" xmlns="http://www.w3.org/2000/svg" xmlns:xlink="http://www.w3.org/1999/xlink" x="0px" y="0px"
	 viewBox="0 0 3100 2000" style="enable-background:new 0 0 3100 2000;" xml:space="preserve">
<rect x="0" y="0" style="fill:#FFFFFF;" width="3100" height="2000"/>
<g>
	<g>
		<g>
			<g>
				<g>
					<path style="fill:#258D8C;" d="M1988.492,1676.894l47.746,24.09c0,0,1.339-123.158-3.124-127.174
						c-4.462-4.016-37.929-138.776-78.982-159.302c-41.052-20.526-48.638,85.229-48.638,85.229
						C1975.788,1382.518,1988.492,1676.894,1988.492,1676.894z"/>
				</g>
			</g>
			<g>
				<g>
					<path style="fill:#7FC6A6;" d="M2068.589,1504.2c-25.1-141.118-117.088-223.423-117.088-223.423
						c51.585,109.349,62.871,406.074,62.871,406.074S2093.689,1645.318,2068.589,1504.2z"/>
				</g>
			</g>
			<g>
				<g>
					<path style="fill:#258D8C;" d="M2122.136,1705.893c0,0,15.395-300.411,93.038-430.658c0,0-136.311,81.323-181.508,294.775
						c-2.545,12.017-4.055,25.374-5.981,38.238c-2.004,13.384-3.2,25.234-2.894,37.064c0.541,20.901,3.44,38.863,4.292,52.062
						C2036.444,1811.429,2122.136,1705.893,2122.136,1705.893z"/>
				</g>
			</g>
			<g>
				<g>
					<path style="fill:#7FC6A6;" d="M2208.927,1525.619c18.741-8.478,61.579,120.035,61.579,120.035s-7.586-185.63-45.515-215.527
						c-17.068-13.454-38.925,5.398-57.805,30.205c-26.135,34.34-42.397,75.167-47.68,117.996l-16.78,136.044l70.057-5.801
						C2172.782,1708.571,2190.185,1534.097,2208.927,1525.619z"/>
				</g>
			</g>
			<g>
				<g>
					<path style="fill:#21111D;" d="M2215.796,1276.183l-1.245-1.896c-0.509,0.334-51.409,34.206-100.066,102.749
						c-28.572,40.25-50.806,84.416-66.087,131.271c-19.099,58.563-27.324,121.511-24.448,187.098l2.265-0.099
						c-6.484-147.856,45.397-253.928,90.061-316.875C2164.687,1310.203,2215.291,1276.516,2215.796,1276.183z"/>
				</g>
			</g>
			<g>
				<g>
					<path style="fill:#21111D;" d="M2015.506,1686.808c-0.028-0.742-2.929-75.224-12.097-162.107
						c-8.467-80.24-24.167-187.778-50.882-244.407l-2.051,0.967c26.579,56.341,42.228,163.604,50.677,243.665
						c9.161,86.809,12.059,161.227,12.087,161.968L2015.506,1686.808z"/>
				</g>
			</g>
			<g>
				<g>
					<path style="fill:#21111D;" d="M1939.002,1474.16c16.213,4.157,29.723,40.427,39.071,104.891
						c7.11,49.026,9.265,97.409,9.286,97.893l2.265-0.099c-0.021-0.484-2.181-48.967-9.305-98.104
						c-9.626-66.386-23.337-102.312-40.754-106.776c-10.653-2.732-22.441,6.416-35.04,27.185l1.939,1.177
						C1918.483,1480.51,1929.429,1471.709,1939.002,1474.16z"/>
				</g>
			</g>
			<g>
				<g>
					<path style="fill:#21111D;" d="M2168.088,1461.018c16.07-21.115,30.173-32.578,41.916-34.07
						c5.213-0.66,10.02,0.706,14.285,4.069c37.088,29.235,45.008,212.831,45.084,214.682l2.266-0.093
						c-0.019-0.464-1.975-47.033-8.543-96.654c-8.848-66.85-21.433-107.128-37.403-119.716c-4.76-3.753-10.134-5.28-15.974-4.537
						c-12.369,1.571-26.982,13.328-43.435,34.946c-25.985,34.141-42.549,75.133-47.904,118.544l-16.78,136.044l2.25,0.278
						l16.78-136.044C2125.936,1535.453,2142.346,1494.84,2168.088,1461.018z"/>
				</g>
			</g>
			<g>
				<g>
					
						<rect x="2154.275" y="1560.392" transform="matrix(0.4587 -0.8886 0.8886 0.4587 -212.6917 2773.9202)" style="fill:#21111D;" width="32.106" height="2.267"/>
				</g>
			</g>
			<g>
				<g>
					
						<rect x="2155.074" y="1578.753" transform="matrix(0.4827 -0.8758 0.8758 0.4827 -260.8919 2718.1018)" style="fill:#21111D;" width="30.508" height="2.267"/>
				</g>
			</g>
			<g>
				<g>
					
						<rect x="2017.657" y="1375.701" transform="matrix(0.91 -0.4146 0.4146 0.91 -394.9766 962.1741)" style="fill:#21111D;" width="2.267" height="30.356"/>
				</g>
			</g>
			<g>
				<g>
					
						<rect x="2018.594" y="1397.368" transform="matrix(0.8747 -0.4847 0.4847 0.8747 -429.5583 1155.5663)" style="fill:#21111D;" width="2.268" height="22.096"/>
				</g>
			</g>
			<g>
				<g>
					
						<rect x="1952.329" y="1419.088" transform="matrix(0.4541 -0.891 0.891 0.4541 -208.6438 2521.6965)" style="fill:#21111D;" width="2.268" height="24.04"/>
				</g>
			</g>
			<g>
				<g>
					
						<rect x="1956.703" y="1434.597" transform="matrix(0.5198 -0.8543 0.8543 0.5198 -291.7314 2365.0342)" style="fill:#21111D;" width="2.267" height="14.832"/>
				</g>
			</g>
		</g>
		<g>
			<g>
				<path style="fill:#FD7583;" d="M2026.995,1883.727h46.257h7.427h46.257c58.824,5.152,62.822-214.47,62.822-214.47
					c-55.666-8.413-169.921-8.413-225.586,0C1964.172,1669.256,1968.17,1888.878,2026.995,1883.727z"/>
			</g>
		</g>
		<g>
			<g>
				
					<rect x="2088.126" y="1730.956" transform="matrix(0.6877 -0.726 0.726 0.6877 -590.7523 2090.9622)" style="fill:#21111D;" width="93.483" height="2.267"/>
			</g>
		</g>
		<g>
			<g>
				
					<rect x="2103.48" y="1761.057" transform="matrix(0.6562 -0.7546 0.7546 0.6562 -597.2665 2213.5271)" style="fill:#21111D;" width="53.928" height="2.268"/>
			</g>
		</g>
	</g>
	<g>
		<g>
			<g>
				<g>
					<g>
						<g>
							<g>
								<g>
									<g>
										<g>
											<g>
												<g>
													<g>
														<g>
															<g>
																<polygon style="fill:#FE9F73;" points="1266.891,1738.087 1160.125,1724.525 1127.936,1826.432 1240.634,1840.875 
																																	"/>
															</g>
														</g>
													</g>
												</g>
											</g>
										</g>
									</g>
								</g>
							</g>
						</g>
					</g>
				</g>
			</g>
			<g>
				<g>
					<g>
						<g>
							<g>
								<g>
									<path style="fill:#35182E;" d="M1244.921,1880.077c1.582,0,2.865-1.315,2.865-2.938v-14.386
										c0-2.371-1.873-4.293-4.184-4.293h-92.586l-37.538-41.945l-68.658,41.945h-14.788c-5.096,0-9.767,3.535-10.727,8.669
										c-1.292,6.908,3.835,12.949,10.336,12.949H1244.921z"/>
								</g>
							</g>
						</g>
					</g>
				</g>
				<g>
					<g>
						<g>
							<g>
								<g>
									<path style="fill:#EF3A4C;" d="M1242.783,1819.595c0,0-15.592-21.53-39.334-10.541c0,0-35.909,26.133-67.564-5.491
										l-78.608,35.77c0,0-21.553,7.39-27.389,19.25h212.895V1819.595z"/>
								</g>
							</g>
						</g>
					</g>
				</g>
				<g>
					<g>
						<g>
							<g>
								<g>
									<g>
										<g>
											<rect x="1241.995" y="1819.594" width="1.576" height="38.793"/>
										</g>
									</g>
								</g>
							</g>
						</g>
					</g>
				</g>
				<g>
					<g>
						<g>
							<g>
								<g>
									<g>
										<g>
											<path d="M1203.003,1808.388c-17.645,12.456-36.2,9.786-36.384,9.761l-0.234,1.598c0.058,0.009,1.872,0.273,4.88,0.273
												c6.875,0,19.987-1.375,32.629-10.299L1203.003,1808.388z"/>
										</g>
									</g>
								</g>
							</g>
						</g>
					</g>
				</g>
				<g>
					<g>
						<g>
							<g>
								<g>
									<g>
										<g>
											<polygon points="1232.812,1843.012 1222.77,1849.957 1223.651,1851.3 1233.692,1844.354 											"/>
										</g>
									</g>
								</g>
							</g>
						</g>
					</g>
				</g>
				<g>
					<g>
						<g>
							<g>
								<g>
									<g>
										<g>
											<polygon points="1225.61,1841.05 1215.57,1847.995 1216.45,1849.334 1226.49,1842.389 											"/>
										</g>
									</g>
								</g>
							</g>
						</g>
					</g>
				</g>
				<g>
					<g>
						<g>
							<g>
								<g>
									<g>
										<g>
											<g>
												<g>
													<g>
														<g>
															<g>
																<g>
																	<path d="M1248.574,1874.73v-10.777c0-3.434-2.723-6.229-6.071-6.229h-212.861c-6.244,0-11.325,5.212-11.325,11.617
																		c0,3.418,1.458,6.647,4,8.859l1.019-1.231c-2.188-1.906-3.443-4.686-3.443-7.627
																		c0-5.516,4.373-10.001,9.749-10.001h212.861c2.478,0,4.494,2.068,4.494,4.612v10.777H1248.574z"/>
																</g>
															</g>
														</g>
													</g>
												</g>
											</g>
										</g>
									</g>
								</g>
							</g>
						</g>
					</g>
				</g>
				<g>
					<g>
						<g>
							<g>
								<g>
									<g>
										<g>
											<path d="M1050.126,1843.189c15.821-6.922,85.377-38.569,86.079-38.887l-0.641-1.478
												c-0.7,0.319-70.246,31.961-86.057,38.878c-16.09,7.039-20.402,16.103-20.578,16.487l1.425,0.69
												C1030.395,1858.79,1034.644,1849.963,1050.126,1843.189z"/>
										</g>
									</g>
								</g>
							</g>
						</g>
					</g>
				</g>
			</g>
		</g>
		<g>
			<g>
				<g>
					<g>
						<g>
							<g>
								<g>
									<g>
										<g>
											<g>
												<g>
													<g>
														<g>
															<g>
																<polygon style="fill:#FE9F73;" points="1547.72,1738.087 1440.955,1724.525 1453.263,1826.432 1565.961,1840.875 
																																	"/>
															</g>
														</g>
													</g>
												</g>
											</g>
										</g>
									</g>
								</g>
							</g>
						</g>
					</g>
				</g>
			</g>
			<g>
				<g>
					<g>
						<g>
							<g>
								<g>
									<path style="fill:#35182E;" d="M1570.249,1880.077c1.582,0,2.864-1.315,2.864-2.938v-14.386
										c0-2.371-1.873-4.293-4.184-4.293h-92.586l-37.538-41.945l-68.658,41.945h-14.787c-5.096,0-9.767,3.535-10.727,8.669
										c-1.292,6.908,3.835,12.949,10.337,12.949H1570.249z"/>
								</g>
							</g>
						</g>
					</g>
				</g>
				<g>
					<g>
						<g>
							<g>
								<g>
									<path style="fill:#EF3A4C;" d="M1568.11,1819.595c0,0-15.592-21.53-39.334-10.541c0,0-35.909,26.133-67.564-5.491
										l-78.608,35.77c0,0-21.553,7.39-27.389,19.25h212.895V1819.595z"/>
								</g>
							</g>
						</g>
					</g>
				</g>
				<g>
					<g>
						<g>
							<g>
								<g>
									<g>
										<g>
											<rect x="1567.323" y="1819.594" width="1.576" height="38.793"/>
										</g>
									</g>
								</g>
							</g>
						</g>
					</g>
				</g>
				<g>
					<g>
						<g>
							<g>
								<g>
									<g>
										<g>
											<path d="M1528.331,1808.388c-17.645,12.456-36.2,9.786-36.384,9.761l-0.234,1.598c0.058,0.009,1.872,0.273,4.88,0.273
												c6.875,0,19.987-1.375,32.63-10.299L1528.331,1808.388z"/>
										</g>
									</g>
								</g>
							</g>
						</g>
					</g>
				</g>
				<g>
					<g>
						<g>
							<g>
								<g>
									<g>
										<g>
											<polygon points="1558.139,1843.012 1548.098,1849.957 1548.978,1851.3 1559.02,1844.354 											"/>
										</g>
									</g>
								</g>
							</g>
						</g>
					</g>
				</g>
				<g>
					<g>
						<g>
							<g>
								<g>
									<g>
										<g>
											<polygon points="1550.937,1841.05 1540.898,1847.995 1541.778,1849.334 1551.818,1842.389 											"/>
										</g>
									</g>
								</g>
							</g>
						</g>
					</g>
				</g>
				<g>
					<g>
						<g>
							<g>
								<g>
									<g>
										<g>
											<g>
												<g>
													<g>
														<g>
															<g>
																<g>
																	<path d="M1573.901,1874.73v-10.777c0-3.434-2.723-6.229-6.07-6.229h-212.862c-6.244,0-11.325,5.212-11.325,11.617
																		c0,3.418,1.458,6.647,4,8.859l1.019-1.231c-2.188-1.906-3.443-4.686-3.443-7.627
																		c0-5.516,4.373-10.001,9.749-10.001h212.862c2.478,0,4.494,2.068,4.494,4.612v10.777H1573.901z"/>
																</g>
															</g>
														</g>
													</g>
												</g>
											</g>
										</g>
									</g>
								</g>
							</g>
						</g>
					</g>
				</g>
				<g>
					<g>
						<g>
							<g>
								<g>
									<g>
										<g>
											<path d="M1375.454,1843.189c15.821-6.922,85.377-38.569,86.079-38.887l-0.641-1.478
												c-0.7,0.319-70.245,31.961-86.057,38.878c-16.09,7.039-20.402,16.103-20.578,16.487l1.425,0.69
												C1355.722,1858.79,1359.972,1849.963,1375.454,1843.189z"/>
										</g>
									</g>
								</g>
							</g>
						</g>
					</g>
				</g>
			</g>
		</g>
		<g>
			<g>
				<path style="fill:#EF3A4C;" d="M1825.608,1377.464c15.834-19.793-12.865-208.813-37.606-274.129
					c-24.741-65.316-89.067-164.279-178.135-195.461c-89.067-31.182-126.602-10.379-126.602-10.379l-45.914,65.081l23.095,245.285
					C1460.446,1207.862,1809.774,1397.256,1825.608,1377.464z"/>
			</g>
		</g>
		<g>
			<g>
				<path style="fill:#258D8C;" d="M1258.547,1830.717l100.943-224.647l-79.171-291.943c0,0-117.767,324.6-151.414,466.118
					C1128.905,1780.245,1186.304,1836.655,1258.547,1830.717z"/>
			</g>
		</g>
		<g>
			<g>
				<path style="fill:#7FC6A6;" d="M1762.271,1478.406c67.295-55.419,63.337-100.943,63.337-100.943l-134.59-107.87l-320.642-44.275
					c0,0-83.984-8.67-101.601,69.787c-9.936,44.251,46.85,227.008,92.702,359.828c28.462,82.445,60.607,162.423,60.607,162.423
					s104.22,2.474,155.496-34.142l-69.268-310.189C1508.312,1473.025,1694.976,1533.826,1762.271,1478.406z"/>
			</g>
		</g>
		<g>
			<g>
				<path style="fill:#FE9F73;" d="M1676.668,1343.816c39.586-16.824,34.637-170.712,34.637-170.712l-135.583-33.694l-1.667,75.765
					c0,0-86.522-18.417-147.27-27.99l-51.014,73.96c12.171,3.253,74.291,20.593,91.837,28.241
					C1467.607,1289.386,1637.083,1360.64,1676.668,1343.816z"/>
			</g>
		</g>
		<g>
			<g>
				<g>
					<path style="fill:#F07162;" d="M1602.985,1239.668c0.356,0,0.709-0.153,0.954-0.45c0.433-0.527,0.358-1.305-0.168-1.739
						l-28.316-23.314c-0.526-0.433-1.304-0.359-1.738,0.169c-0.433,0.527-0.358,1.305,0.168,1.739l28.315,23.314
						C1602.431,1239.576,1602.709,1239.668,1602.985,1239.668z"/>
				</g>
			</g>
		</g>
		<g>
			<g>
				<path style="fill:#F9956E;" d="M1476.267,1205.982c0,0-22.267-265.259-35.627-277.474s-72.986-45.292-72.986-45.292
					s-3.711,3.641-0.99,10.937c2.721,7.296,20.158,43.294,20.158,43.294s-24.895,214.578-24.877,249.982
					C1361.964,1222.833,1476.267,1205.982,1476.267,1205.982z"/>
			</g>
		</g>
		<g>
			<g>
				<g>
					<g>
						<g>
							<g>
								<path style="fill:#FE9F73;" d="M1435.282,941.25l16.443,28.914c6.112,10.748,19.009,15.804,30.697,11.771
									c5.715-1.972,12.032-5.005,18.296-9.658c19.865-14.756,19.557-37.648,15.679-46.327
									c-3.878-8.679-35.283-40.581-35.283-40.581l-12.387-17.938l-52.599-66.085l-59.904,68.06l45.903,61.793
									C1402.127,931.199,1416.056,951.679,1435.282,941.25z"/>
							</g>
						</g>
					</g>
				</g>
			</g>
		</g>
		<g>
			<g>
				<g>
					<g>
						<g>
							<g>
								<path style="fill:#F07162;" d="M1435.282,941.25l12.128,21.326c39.166-34.021,15.633-68.136,15.633-68.136
									C1466.232,926.655,1435.282,941.25,1435.282,941.25z"/>
							</g>
						</g>
					</g>
				</g>
			</g>
		</g>
		<g>
			<g>
				<g>
					<g>
						<g>
							<g>
								<path d="M1405.4,877.748c3.702-14.273,21.327-11.496,22.075-11.371c0.288,0.048,0.569-0.028,0.786-0.189
									c0.206-0.153,0.356-0.383,0.402-0.657c0.094-0.561-0.284-1.093-0.845-1.187c-0.202-0.034-20.237-3.223-24.413,12.887
									c-0.143,0.551,0.188,1.114,0.739,1.256C1404.694,878.632,1405.257,878.301,1405.4,877.748z"/>
							</g>
						</g>
					</g>
				</g>
			</g>
		</g>
		<g>
			<g>
				<g>
					<g>
						<path d="M1435.233,853.302l15.101-16.989c0,0-38.564-25.138-37.554-16.752c1.009,8.387,21.709,39.484,21.709,39.484
							L1435.233,853.302z"/>
					</g>
				</g>
			</g>
		</g>
		<g>
			<g>
				<g>
					<g>
						<g>
							<g>
								<path d="M1376.653,892.227c1.42-6.257,12.99-5.467,13.107-5.459c0.257,0.02,0.499-0.057,0.692-0.2
									c0.232-0.172,0.39-0.44,0.413-0.751c0.043-0.567-0.382-1.062-0.95-1.105c-0.549-0.042-13.461-0.929-15.272,7.06
									c-0.126,0.555,0.222,1.107,0.777,1.233C1375.975,893.132,1376.527,892.784,1376.653,892.227z"/>
							</g>
						</g>
					</g>
				</g>
			</g>
		</g>
		<g>
			<g>
				<g>
					<g>
						<g>
							<g>
								<path d="M1418.335,882.606c1.371-1.019,1.657-2.956,0.639-4.328c-1.019-1.372-2.956-1.657-4.328-0.639
									c-1.371,1.019-1.657,2.956-0.638,4.328C1415.026,883.339,1416.964,883.625,1418.335,882.606z"/>
							</g>
						</g>
					</g>
				</g>
			</g>
		</g>
		<g>
			<g>
				<g>
					<g>
						<g>
							<g>
								<path d="M1390.096,899.73c1.371-1.019,1.657-2.956,0.638-4.328c-1.019-1.371-2.956-1.657-4.327-0.639
									c-1.371,1.019-1.657,2.956-0.639,4.328C1386.787,900.463,1388.724,900.748,1390.096,899.73z"/>
							</g>
						</g>
					</g>
				</g>
			</g>
		</g>
		<g>
			<g>
				<g>
					<g>
						<g>
							<g>
								<path style="fill:#FE9F73;" d="M1459.841,869.702c8.228-6.112,9.944-17.738,3.831-25.966
									c-6.112-8.228-17.738-9.944-25.966-3.831c-8.228,6.112-9.944,17.738-3.831,25.966
									C1439.988,874.099,1451.613,875.814,1459.841,869.702z"/>
							</g>
						</g>
					</g>
				</g>
			</g>
		</g>
		<g>
			<g>
				<g>
					<g>
						<g>
							<g>
								<path style="fill:#F07162;" d="M1451.464,841.928c0.271-0.088,0.417-0.38,0.328-0.651c-0.089-0.27-0.38-0.417-0.65-0.328
									c-0.203,0.066-4.979,1.677-6.908,5.883c-1.114,2.428-1.036,5.205,0.231,8.251l0.71,1.709l0.276-1.831
									c0.038-0.259,1.022-6.336,7.14-6.849c3.387-0.283,5.54,2.189,6.354,4.391c0.845,2.287,0.813,5.69-2.032,7.804
									c-0.028,0.021-0.057,0.039-0.086,0.063c-0.226,0.168-0.276,0.486-0.11,0.716c0.166,0.23,0.489,0.283,0.72,0.116
									c0.029-0.022,0.059-0.043,0.088-0.065c3.095-2.299,3.434-6.161,2.388-8.991c-1.238-3.348-4.145-5.334-7.407-5.062
									c-4.821,0.403-6.836,3.939-7.62,6.085c-0.613-2.169-0.519-4.149,0.283-5.902
									C1446.903,843.47,1451.418,841.943,1451.464,841.928z"/>
							</g>
						</g>
					</g>
				</g>
			</g>
		</g>
		<g>
			<g>
				<g>
					<g>
						<g>
							<g>
								<path style="fill:#F07162;" d="M1417.545,905.299c0.054-0.017,0.102-0.044,0.146-0.076c0.174-0.129,0.254-0.359,0.182-0.576
									c-0.09-0.271-0.381-0.417-0.651-0.328l-10.334,3.42l-11.882-21.472c-0.138-0.249-0.452-0.34-0.7-0.201
									c-0.256,0.134-0.34,0.452-0.202,0.701l12.297,22.22L1417.545,905.299z"/>
							</g>
						</g>
					</g>
				</g>
			</g>
		</g>
		<g>
			<g>
				<path style="fill:#F07162;" d="M1422.598,912.63c0.042-0.044,4.301-4.402,11.294-8.198c0.406-0.22,0.556-0.727,0.336-1.132
					c-0.222-0.406-0.732-0.553-1.132-0.336c-7.233,3.927-11.519,8.321-11.698,8.505c-0.321,0.331-0.311,0.86,0.02,1.181
					c0.161,0.157,0.372,0.235,0.581,0.235C1422.216,912.885,1422.435,912.8,1422.598,912.63z"/>
			</g>
		</g>
		<g>
			<g>
				<g>
					<g>
						<g>
							<g>
								<path style="fill:#F07162;" d="M1436.602,942.456l14.355,28.035c0.059,0.142,5.998,13.709,21.847,13.709
									c0.54,0,1.093-0.016,1.656-0.049c0.46-0.026,0.811-0.421,0.784-0.882c-0.026-0.457-0.362-0.833-0.882-0.784
									c-15.886,0.903-21.632-12.091-21.893-12.7l-15.154-29.6l-0.752,0.408c-18.365,9.96-33.151-9.082-33.766-9.889
									l-45.902-61.794c-0.276-0.375-0.804-0.448-1.168-0.173c-0.37,0.276-0.448,0.798-0.173,1.168l45.907,61.802
									C1401.622,931.914,1417.319,952.172,1436.602,942.456z"/>
							</g>
						</g>
					</g>
				</g>
			</g>
		</g>
		<g>
			<g>
				<g>
					<g>
						<path d="M1325.185,866.283c8.849,21.594,58.612-3.387,78.562-31.391c0,0,21.132-7.836,46.587,1.422
							c0,0-16.52-32.747-33.434-36.962c-16.915-4.215-81.95,14.729-84.112,24.726c-2.163,9.997,8.893,11.972,8.893,11.972
							S1316.336,844.69,1325.185,866.283z"/>
					</g>
				</g>
			</g>
		</g>
		<g>
			<g>
				<path style="fill:#21111D;" d="M1498.707,981.729c-0.877,0.284-1.359,1.225-1.075,2.102c0.228,0.706,0.884,1.156,1.589,1.156
					c0.169,0,0.342-0.026,0.514-0.082c37.839-12.23,23.509-63.875,23.359-64.395c-0.254-0.889-1.186-1.393-2.065-1.145
					c-0.886,0.253-1.399,1.177-1.145,2.065C1520.023,921.92,1533.474,970.49,1498.707,981.729z"/>
			</g>
		</g>
		<g>
			<g>
				<path style="fill:#21111D;" d="M1557.736,918.236c0.861-0.31,1.313-1.259,1.008-2.125c-0.305-0.871-1.256-1.326-2.13-1.021
					c-0.862,0.303-21.148,8.066-21.898,62.785c-0.735,53.745,20.603,156.244,20.818,157.273l0.215,1.026l165,40.946l-0.106-2.241
					c-0.055-1.173-5.627-117.793-10.402-157.84c-0.109-0.917-0.938-1.569-1.856-1.461c-0.917,0.109-1.571,0.941-1.461,1.856
					c4.395,36.853,9.474,138.924,10.274,155.365l-158.609-39.361c-2.232-10.88-21.226-105.02-20.534-155.516
					C1538.766,926.09,1557.43,918.355,1557.736,918.236z"/>
			</g>
		</g>
		<g>
			<g>
				<path style="fill:#21111D;" d="M1713.02,1065.404c0.488,0,0.969-0.212,1.3-0.618c4.886-6.031,11.857-22.739,12.152-23.447
					c0.354-0.851-0.051-1.83-0.902-2.184c-0.853-0.351-1.828,0.051-2.184,0.902c-0.07,0.17-7.078,16.969-11.662,22.625
					c-0.58,0.718-0.469,1.768,0.246,2.35C1712.28,1065.281,1712.651,1065.404,1713.02,1065.404z"/>
			</g>
		</g>
		<g>
			<g>
				<path style="fill:#21111D;" d="M1716.195,1139.29c0.274,0.17,0.579,0.251,0.879,0.251c0.559,0,1.104-0.28,1.42-0.789
					c0.486-0.785,0.245-1.814-0.538-2.3c-30.352-18.828-164.043-51.947-169.72-53.348c-0.892-0.222-1.801,0.328-2.021,1.222
					c-0.222,0.896,0.326,1.8,1.222,2.021C1548.822,1086.69,1686.29,1120.739,1716.195,1139.29z"/>
			</g>
		</g>
		<g>
			<g>
				<path style="fill:#21111D;" d="M1325.555,1233.078c0.885-0.253,1.399-1.177,1.145-2.064c-0.255-0.885-1.174-1.393-2.063-1.147
					c-0.408,0.117-40.985,12.189-56.207,59.093c-18.175,56.007,108.53,422.775,152.11,529.031l0.421,1.029l1.114,0.006
					c0.026,0,0.157,0,0.387,0c5.468,0,66.76-0.317,110.664-13.722c0.882-0.269,1.38-1.202,1.109-2.084
					c-0.267-0.882-1.2-1.381-2.084-1.109c-41.983,12.817-100.209,13.541-108.945,13.573
					c-43.859-107.306-169.476-470.605-151.598-525.694C1286.26,1244.835,1325.163,1233.191,1325.555,1233.078z"/>
			</g>
		</g>
		<g>
			<g>
				<path style="fill:#21111D;" d="M1528.853,1560.138c0.122,0,0.246-0.013,0.369-0.041c0.9-0.204,1.464-1.098,1.262-1.996
					l-25.782-114.238c-0.204-0.902-1.109-1.46-1.996-1.262c-0.9,0.204-1.465,1.098-1.262,1.996l25.782,114.237
					C1527.401,1559.611,1528.089,1560.138,1528.853,1560.138z"/>
			</g>
		</g>
		<g>
			<g>
				<path style="fill:#21111D;" d="M1610.474,1497.245c9.595,1.253,18.774,2.073,26.948,2.225c0.922,0.017,1.683-0.718,1.701-1.64
					c0.016-0.921-0.704-1.677-1.64-1.701c-46.56-0.871-126.445-23.712-127.247-23.942c-0.887-0.257-1.811,0.255-2.065,1.143
					c-0.255,0.886,0.255,1.811,1.143,2.065C1509.977,1475.589,1564.898,1491.295,1610.474,1497.245z"/>
			</g>
		</g>
		<g>
			<g>
				<g>
					<path style="fill:#FE9F73;" d="M1324.644,1254.272c-10.303,8.973-8.664,13.857-5.51,16.37c2.309,1.84,5.405,2.351,8.256,1.585
						c6.651-1.786,23.32-6.317,38.434-10.863l0,0h0c5.453-1.64,39.814,2.404,52.421,4.722c0.043-0.051,0.07-0.083,0.07-0.083
						l63.43,13.118l1.518-82.067c0,0-74.761-14.221-85.795-15.339c-11.034-1.119-49.32,7.444-61.525,15.941
						c-22.147,15.418-9.516,17.698-9.516,17.698c-21.505,18.17-0.576,19.378-0.576,19.378
						C1305.158,1249.323,1324.644,1254.272,1324.644,1254.272z"/>
				</g>
			</g>
			<g>
				<g>
					<g>
						<g>
							<g>
								<g>
									<path style="fill:#F07162;" d="M1325.275,1255.447c0.143-0.078,14.505-7.75,24.417-10.635
										c0.707-0.205,1.113-0.945,0.907-1.652c-0.165-0.57-0.678-0.944-1.24-0.96c-0.135-0.004-0.274,0.013-0.412,0.053
										c-10.183,2.963-24.336,10.524-24.934,10.843c-0.648,0.348-0.893,1.156-0.545,1.806
										C1323.818,1255.549,1324.626,1255.793,1325.275,1255.447z"/>
								</g>
							</g>
						</g>
					</g>
				</g>
			</g>
			<g>
				<g>
					<g>
						<g>
							<g>
								<g>
									<path style="fill:#F07162;" d="M1326.49,1235.903c0.11-0.059,11.124-6.003,23.536-7.933
										c0.728-0.114,1.226-0.795,1.113-1.522c-0.101-0.645-0.647-1.109-1.277-1.128c-0.081-0.003-0.163,0.003-0.245,0.015
										c-12.887,2.004-23.94,7.975-24.405,8.228c-0.646,0.352-0.884,1.161-0.532,1.809
										C1325.032,1236.015,1325.84,1236.256,1326.49,1235.903z"/>
								</g>
							</g>
						</g>
					</g>
				</g>
			</g>
			<g>
				<g>
					<g>
						<g>
							<g>
								<g>
									<path style="fill:#F07162;" d="M1327.114,1216.498c0.098-0.06,9.895-5.897,20.562-7.872
										c0.724-0.135,1.202-0.831,1.069-1.554c-0.117-0.629-0.656-1.072-1.27-1.09c-0.094-0.003-0.188,0.004-0.283,0.022
										c-11.138,2.063-21.035,7.958-21.45,8.208c-0.631,0.38-0.835,1.199-0.457,1.829
										C1325.665,1216.672,1326.484,1216.879,1327.114,1216.498z"/>
								</g>
							</g>
						</g>
					</g>
				</g>
			</g>
		</g>
		<g>
			<g>
				<path style="fill:#21111D;" d="M1311.315,1316.437c-0.827-0.407-1.828-0.076-2.239,0.747c-0.37,0.742-9.084,18.445-8.712,41.595
					c0.015,0.913,0.76,1.644,1.67,1.644c0.008,0,0.018,0,0.026,0c0.923-0.015,1.658-0.774,1.644-1.696
					c-0.359-22.301,8.273-39.875,8.36-40.051C1312.475,1317.852,1312.141,1316.849,1311.315,1316.437z"/>
			</g>
		</g>
		<g>
			<g>
				<path style="fill:#21111D;" d="M1318.589,1331.958c-0.856-0.325-1.827,0.101-2.156,0.961
					c-0.354,0.925-8.658,22.788-7.528,37.467c0.067,0.876,0.799,1.541,1.664,1.541c0.042,0,0.086-0.001,0.13-0.005
					c0.918-0.07,1.607-0.874,1.536-1.794c-1.071-13.924,7.233-35.794,7.316-36.014
					C1319.881,1333.253,1319.45,1332.287,1318.589,1331.958z"/>
			</g>
		</g>
		<g>
			<g>
				<path style="fill:#21111D;" d="M1271.358,1339.057c-0.87-0.315-1.825,0.139-2.135,1.01
					c-1.142,3.19-114.532,320.355-141.947,439.805l-0.187,0.812l0.537,0.638c0.443,0.525,44.076,51.186,124.236,51.183
					c2.217,0,4.469-0.039,6.742-0.119c0.921-0.031,1.642-0.806,1.61-1.727c-0.033-0.921-0.756-1.67-1.728-1.61
					c-77.868,2.74-122.407-43.378-127.763-49.269c27.704-119.893,140.504-435.408,141.643-438.588
					C1272.678,1340.324,1272.227,1339.369,1271.358,1339.057z"/>
			</g>
		</g>
		<g>
			<g>
				<polygon style="fill:#F9BB78;" points="1811.756,1509.054 1800.639,1509.054 1826.694,1882.075 1837.811,1882.075 				"/>
			</g>
			<g>
				<polygon style="fill:#F9BB78;" points="1609.159,1509.054 1583.103,1882.075 1594.22,1882.075 1620.276,1509.054 				"/>
			</g>
			<g>
				<path style="fill:#4C222E;" d="M1842.733,1513.709c5.647,0,10.224-4.578,10.224-10.224c0-5.646-4.577-10.224-10.224-10.224
					h-264.552c-5.647,0-10.224,4.578-10.224,10.224c0,5.647,4.578,10.224,10.224,10.224H1842.733z"/>
			</g>
			<g>
				<rect x="1605.786" y="1640.697" style="fill:#F9BB78;" width="207.515" height="10.587"/>
			</g>
		</g>
		<g>
			<path style="fill:#F07162;" d="M1336.792,1198.874c12.031-8.375,49.847-16.767,60.528-15.683
				c10.844,1.099,84.92,15.179,85.672,15.322c46.533,8.714,90.317,18.019,90.754,18.112c0.104,0.022,0.208,0.033,0.311,0.033
				c0.685,0,1.301-0.477,1.448-1.174c0.171-0.802-0.341-1.589-1.141-1.759c-0.438-0.094-44.256-9.407-90.822-18.126
				c-3.055-0.581-74.951-14.246-85.923-15.358c-11.328-1.151-49.805,7.346-62.522,16.199c-0.673,0.468-0.838,1.392-0.37,2.065
				C1335.196,1199.176,1336.12,1199.342,1336.792,1198.874z"/>
		</g>
	</g>
	<g>
		<path style="fill:#FCEFE6;" d="M2698.242,1127.813c34.242-18.831,29.132-19.183,31.964-17.413l0.446-1.936
			c69.096-44.724,128.203-106.215,167.444-180.896c0.009,0,0.009-0.009,0.009-0.009v-0.009
			c174.298-328.176-119.32-722.566-543.914-668.534l-0.009-0.009c-0.702,0.096-0.5,0.069-1.091,0.145l-0.009,0.009
			c-342.795,46.698-549.421,390.503-382.249,682.867c18.552,32.376,40.618,61.59,64.401,87.013l4.15-4.149l-2.605,5.794
			C2206.316,1211.411,2488.779,1243.019,2698.242,1127.813z"/>
	</g>
	<g>
		<path style="fill:#CAFBFF;" d="M365.591,1263.526c136.027,83.08,336.893,96.61,523.016,4.025
			c46.529-23.142,93.29-55.052,114.379-72.966c410.81-326.362,58.528-830.337-256.959-872.501
			C616.677,299.884,472.356,348.05,357.7,449.228C74.647,694.36,86.482,1097.757,365.591,1263.526z"/>
	</g>
	<g>
		<ellipse style="fill:#CAFBFF;" cx="1268.033" cy="709.339" rx="43.509" ry="33.446"/>
	</g>
	<g>
		<ellipse style="fill:#CAFBFF;" cx="1358.076" cy="764.813" rx="22.562" ry="17.688"/>
	</g>
	<g>
		<ellipse style="fill:#FCEFE6;" cx="1820.943" cy="777.498" rx="43.509" ry="33.446"/>
	</g>
	<g>
		<ellipse style="fill:#FCEFE6;" cx="1730.9" cy="832.971" rx="22.562" ry="17.688"/>
	</g>
	<g>
		<g>
			<g>
				<g>
					<path style="fill:#ED2B47;" d="M1780.33,526.442c-5.697,2.701-15.256,5.363-25.378,8.181
						c-28.001,7.797-62.848,17.5-84.824,43.883c-18,21.609-26.183,51.008-27.057,54.289c-2.819,10.586,2.818,21.451,12.764,25.383
						c0.767,0.303,1.561,0.566,2.378,0.783c11.402,3.037,23.102-3.723,26.138-15.126c1.746-6.446,8.494-25.837,18.61-37.981
						c13.445-16.143,41.173-23.863,63.453-30.067c11.938-3.324,23.214-6.464,32.224-10.736
						c15.673-7.431,27.726-19.195,35.823-34.964c6.817-13.276,10.475-28.791,10.873-46.115c0.442-19.222-6.99-39.236-20.925-56.353
						c-13.863-17.027-33.467-30.055-55.207-36.686c-43.304-13.208-71.376-3.665-74.435-2.533
						c-11.066,4.095-16.718,16.385-12.623,27.452c4.094,11.065,16.385,16.718,27.452,12.623c0.164-0.061,18.176-5.505,47.14,3.33
						c13.707,4.181,25.972,12.275,34.535,22.792c7.414,9.107,11.549,19.456,11.343,28.393
						C1802.265,498.158,1798.116,518.008,1780.33,526.442z"/>
				</g>
			</g>
		</g>
		<g>
			<g>
				<path style="fill:#ED2B47;" d="M1634.282,717.815c11.705,4.628,24.945-1.109,29.573-12.814
					c4.628-11.705-1.109-24.945-12.814-29.573c-11.705-4.628-24.945,1.109-29.573,12.814
					C1616.84,699.947,1622.578,713.188,1634.282,717.815z"/>
			</g>
		</g>
		<g>
			<g>
				<g>
					<path d="M1670.541,578.85c21.869-26.255,56.627-35.933,84.556-43.71c0.286-0.08,0.453-0.375,0.373-0.661
						c-0.08-0.286-0.376-0.452-0.661-0.373c-28.073,7.816-63.01,17.544-85.093,44.057c-18.077,21.702-26.287,51.203-27.163,54.495
						c-2.864,10.753,2.762,21.939,13.085,26.02c0.56,0.222,1.137,0.422,1.721,0.599c0.237,0.072,0.476,0.14,0.715,0.204
						c5.654,1.506,11.554,0.724,16.613-2.202c5.061-2.927,8.677-7.652,10.182-13.304c0.076-0.286-0.094-0.579-0.38-0.657
						c-0.287-0.076-0.581,0.094-0.657,0.381c-1.431,5.375-4.87,9.867-9.682,12.651c-4.811,2.783-10.422,3.526-15.799,2.094
						c-0.788-0.21-1.569-0.467-2.318-0.763c-9.817-3.881-15.166-14.519-12.442-24.745
						C1644.46,629.665,1652.61,600.375,1670.541,578.85z"/>
				</g>
			</g>
			<g>
				<g>
					<path d="M1798.407,564.567c-8.965,4.251-20.215,7.384-32.138,10.704c-0.285,0.08-0.447,0.374-0.367,0.66
						c0.051,0.183,0.193,0.316,0.364,0.368c0.096,0.029,0.201,0.032,0.303,0.003c11.956-3.329,23.25-6.474,32.298-10.765
						c15.782-7.483,27.918-19.328,36.07-35.204c6.854-13.349,10.532-28.943,10.931-46.348c0.445-19.35-7.029-39.488-21.045-56.704
						c-0.188-0.23-0.526-0.265-0.755-0.077c-0.23,0.187-0.265,0.525-0.078,0.755c13.855,17.019,21.244,36.907,20.805,56.002
						c-0.396,17.242-4.034,32.679-10.814,45.882C1825.941,545.504,1813.971,557.187,1798.407,564.567z"/>
				</g>
			</g>
			<g>
				<g>
					<path d="M1694.952,388.904c0.278-0.103,0.42-0.412,0.317-0.69c-0.103-0.278-0.412-0.421-0.69-0.317
						c-11.326,4.191-17.131,16.815-12.94,28.142c2.03,5.486,6.075,9.854,11.391,12.298c5.314,2.444,11.264,2.672,16.738,0.647
						c0.173-0.057,18.008-5.377,46.521,3.247c0.096,0.029,0.193,0.059,0.289,0.088c13.607,4.15,25.779,12.182,34.275,22.617
						c7.335,9.01,11.426,19.23,11.223,28.042c-0.006,0.247,0.156,0.458,0.381,0.526c0.046,0.014,0.094,0.022,0.144,0.023
						c0.296,0.007,0.542-0.228,0.549-0.524c0.209-9.063-3.969-19.54-11.463-28.744c-8.629-10.598-20.986-18.755-34.794-22.966
						c-0.098-0.03-0.196-0.06-0.293-0.089c-28.969-8.762-47.026-3.292-47.19-3.231c-5.218,1.931-10.876,1.714-15.93-0.611
						c-5.055-2.325-8.902-6.478-10.832-11.695C1678.662,404.895,1684.182,392.89,1694.952,388.904z"/>
				</g>
			</g>
		</g>
		<g>
			<g>
				<path d="M1652.118,716.766c-5.169,2.427-10.807,2.686-15.885,1.15c-5.833-1.765-10.927-5.899-13.715-11.837
					c-0.126-0.268-0.445-0.384-0.714-0.258c-0.268,0.126-0.384,0.446-0.258,0.714c2.922,6.225,8.261,10.559,14.377,12.408
					c5.322,1.61,11.234,1.338,16.651-1.205c5.64-2.648,9.912-7.333,12.028-13.194c2.116-5.861,1.823-12.194-0.824-17.834
					c-0.126-0.268-0.445-0.384-0.714-0.258c-0.269,0.126-0.384,0.446-0.258,0.714c2.526,5.381,2.805,11.423,0.787,17.013
					C1661.573,709.77,1657.499,714.24,1652.118,716.766z"/>
			</g>
		</g>
	</g>
	<g>
		<g>
			<g>
				<g>
					<path style="fill:#ED2B47;" d="M1459.074,538.016c5.568-5.94,10.827-11.551,14.427-17.024
						c6.263-9.521,9.015-20.239,8.179-31.855c-0.704-9.78-3.945-19.738-9.634-29.6c-6.312-10.943-17.314-19.642-30.98-24.496
						c-13.594-4.828-29.046-5.452-43.513-1.755c-28.819,7.363-41.322,22.302-42.653,23.981c-4.815,6.075-3.794,14.904,2.282,19.72
						c6.075,4.815,14.904,3.794,19.72-2.282c0.071-0.09,8.325-9.293,27.601-14.219c9.122-2.331,18.771-1.972,27.166,1.01
						c7.271,2.582,13.124,6.981,16.058,12.069c4.981,8.634,9.426,21.194,2.319,31.999c-2.276,3.46-6.735,8.217-11.455,13.254
						c-13.059,13.933-29.311,31.273-32.645,53.585c-2.731,18.274,2.708,37.572,3.337,39.713c2.03,6.905,8.902,11.081,15.828,9.894
						c0.534-0.092,1.069-0.215,1.602-0.372c7.438-2.186,11.699-9.974,9.512-17.412c-1.219-4.215-4.049-17.404-2.514-27.674
						C1435.751,562.9,1448.683,549.103,1459.074,538.016z"/>
				</g>
			</g>
		</g>
		<g>
			<g>
				<path style="fill:#ED2B47;" d="M1433.365,662.846c8.151-1.396,13.626-9.136,12.229-17.286
					c-1.396-8.151-9.136-13.626-17.286-12.23c-8.151,1.397-13.626,9.136-12.229,17.286
					C1417.475,658.767,1425.214,664.242,1433.365,662.846z"/>
			</g>
		</g>
		<g>
			<g>
				<g>
					<path d="M1438.848,519.059c0.133-0.142,0.126-0.365-0.016-0.499c-0.142-0.133-0.365-0.126-0.498,0.016
						c-13.093,13.969-29.387,31.353-32.737,53.774c-2.742,18.353,2.717,37.717,3.348,39.864c2.062,7.014,9.038,11.374,16.226,10.142
						c0.39-0.067,0.782-0.151,1.171-0.251c0.158-0.041,0.315-0.084,0.471-0.13c3.688-1.084,6.734-3.537,8.575-6.906
						c1.842-3.371,2.26-7.257,1.176-10.944c-0.055-0.187-0.25-0.293-0.438-0.239c-0.187,0.055-0.294,0.251-0.239,0.438
						c1.031,3.506,0.634,7.202-1.118,10.407c-1.751,3.204-4.647,5.536-8.155,6.568c-0.514,0.151-1.04,0.273-1.562,0.363
						c-6.836,1.172-13.469-2.975-15.43-9.646c-0.627-2.132-6.047-21.357-3.327-39.561
						C1409.612,550.251,1425.823,532.956,1438.848,519.059z"/>
				</g>
			</g>
			<g>
				<g>
					<path d="M1458.817,537.775c-0.133,0.142-0.123,0.362,0.019,0.496c0.091,0.085,0.216,0.112,0.33,0.082
						c0.064-0.016,0.124-0.05,0.172-0.102c5.576-5.95,10.843-11.569,14.459-17.066c6.307-9.587,9.078-20.379,8.236-32.074
						c-0.708-9.833-3.964-19.843-9.68-29.751c-6.354-11.015-17.422-19.77-31.167-24.652c-0.184-0.065-0.385,0.031-0.45,0.214
						c-0.065,0.184,0.031,0.385,0.214,0.451c13.587,4.826,24.522,13.47,30.792,24.34c5.662,9.815,8.888,19.723,9.588,29.449
						c0.83,11.537-1.902,22.181-8.122,31.636C1469.624,526.244,1464.377,531.842,1458.817,537.775z"/>
				</g>
			</g>
			<g>
				<g>
					<path d="M1355.119,456.99c-0.153-0.121-0.375-0.096-0.495,0.057c-4.928,6.218-3.879,15.287,2.339,20.215
						c3.012,2.387,6.774,3.459,10.592,3.017c3.818-0.442,7.236-2.344,9.618-5.349c0.078-0.091,8.275-9.165,27.226-14.054
						c0.064-0.016,0.128-0.033,0.193-0.049c9.055-2.314,18.63-1.958,26.961,1.001c7.193,2.555,12.977,6.897,15.871,11.913
						c0.081,0.141,0.244,0.204,0.393,0.166c0.03-0.008,0.06-0.02,0.088-0.036c0.169-0.097,0.226-0.313,0.129-0.482
						c-2.976-5.159-8.897-9.615-16.245-12.225c-8.461-3.005-18.182-3.367-27.372-1.019c-0.065,0.017-0.13,0.033-0.195,0.05
						c-19.254,4.967-27.524,14.201-27.596,14.291c-2.271,2.865-5.521,4.674-9.152,5.094c-3.631,0.42-7.208-0.599-10.073-2.869
						c-5.913-4.687-6.911-13.311-2.225-19.224C1355.297,457.333,1355.272,457.111,1355.119,456.99z"/>
				</g>
			</g>
		</g>
		<g>
			<g>
				<path d="M1434.494,662.236c-3.877,1-8.148,0.417-11.74-1.965c-0.162-0.107-0.381-0.063-0.489,0.099
					c-0.108,0.162-0.063,0.381,0.099,0.489c3.765,2.498,8.241,3.109,12.306,2.06c3.538-0.912,6.763-3.082,8.937-6.359
					c2.263-3.411,3.062-7.5,2.25-11.512c-0.812-4.012-3.138-7.468-6.549-9.731c-0.162-0.107-0.381-0.063-0.489,0.099
					c-0.108,0.162-0.063,0.381,0.099,0.489c3.254,2.159,5.473,5.456,6.248,9.283c0.775,3.828,0.012,7.728-2.146,10.982
					C1440.946,659.296,1437.869,661.365,1434.494,662.236z"/>
			</g>
		</g>
	</g>
	<g>
		<g>
			<g>
				<g>
					<g>
						<path style="fill:#4CB7D8;" d="M942.683,982.265l-549.051,58.607c-24.507,2.616-46.47-15.188-48.983-39.705l-26.63-262.217
							c-2.497-24.371,15.178-46.176,39.538-48.776l549.051-58.607c24.507-2.616,46.47,15.188,48.983,39.705l26.63,262.217
							C984.718,957.86,967.044,979.664,942.683,982.265z"/>
					</g>
				</g>
			</g>
		</g>
		
			<ellipse transform="matrix(0.994 -0.1095 0.1095 0.994 -93.0853 100.638)" style="fill:#3A92AD;" cx="869.369" cy="897.493" rx="57.98" ry="31.983"/>
		<g>
			<path d="M501.918,765.537c-2.168,1.43-4.341,2.567-6.517,3.411c-2.177,0.845-4.368,1.388-6.574,1.631
				c-2.224,0.245-4.366,0.188-6.424-0.171c-2.058-0.359-4.014-1.013-5.868-1.963c-3.033-1.526-5.492-3.665-7.377-6.415
				c-1.885-2.751-3.016-5.845-3.395-9.282c-0.286-2.592-0.048-5.162,0.713-7.712c0.761-2.549,1.988-4.838,3.681-6.866
				c1.773-2.149,3.868-3.859,6.286-5.13c2.418-1.271,5.079-2.067,7.984-2.387c2.114-0.233,4.325-0.174,6.634,0.176
				c2.309,0.35,4.725,1,7.248,1.95l0.353,3.198c-2.744-1.093-5.264-1.848-7.562-2.265c-2.297-0.417-4.457-0.513-6.479-0.291
				c-1.801,0.198-3.493,0.632-5.076,1.299c-1.582,0.668-3.048,1.55-4.397,2.648c-2.211,1.881-3.842,4.14-4.891,6.776
				c-1.049,2.637-1.411,5.426-1.087,8.367c0.249,2.261,0.918,4.406,2.007,6.435c1.089,2.029,2.504,3.766,4.244,5.211
				c1.741,1.445,3.73,2.482,5.966,3.11c2.237,0.628,4.578,0.807,7.022,0.538c2.004-0.221,4.077-0.784,6.219-1.69
				c2.142-0.906,4.452-2.193,6.928-3.861L501.918,765.537z"/>
			<path d="M507.776,767.794l-2.808-25.478l2.84-0.313l0.693,6.287c1.313-2.601,2.566-4.488,3.758-5.661
				c1.192-1.173,2.495-1.838,3.911-1.994c0.772-0.085,1.538-0.011,2.299,0.221c0.76,0.232,1.573,0.636,2.436,1.211l-1.246,2.872
				c-0.841-0.54-1.595-0.922-2.261-1.146c-0.667-0.224-1.294-0.304-1.882-0.239c-1.14,0.126-2.237,0.805-3.292,2.037
				c-1.055,1.233-2.182,3.161-3.381,5.787l1.775,16.103L507.776,767.794z"/>
			<path d="M546.731,760.654c-1.529,1.322-3.053,2.346-4.573,3.072c-1.52,0.726-3.117,1.181-4.789,1.365
				c-3.805,0.419-6.999-0.494-9.581-2.74c-2.583-2.246-4.102-5.437-4.557-9.573c-0.426-3.86,0.322-7.082,2.242-9.666
				c1.92-2.584,4.654-4.071,8.202-4.462c3.29-0.363,6.069,0.457,8.336,2.458c2.267,2.001,3.603,4.84,4.009,8.517l0.012,0.11
				l-19.88,2.191l0.033,0.303c0.367,3.327,1.555,5.922,3.565,7.784s4.43,2.638,7.261,2.326c1.691-0.186,3.285-0.664,4.782-1.434
				c1.497-0.77,3.029-1.892,4.597-3.367L546.731,760.654z M526.241,749.46l16.186-1.784c-0.541-2.21-1.613-3.916-3.215-5.116
				c-1.602-1.2-3.433-1.687-5.491-1.46c-2.114,0.233-3.867,1.124-5.259,2.673C527.068,745.322,526.328,747.218,526.241,749.46z"/>
			<path d="M570.768,758.954c-0.942,0.904-1.981,1.609-3.116,2.116c-1.135,0.506-2.401,0.837-3.798,0.991
				c-3.713,0.409-6.858-0.477-9.433-2.658c-2.575-2.181-4.08-5.239-4.513-9.173c-0.434-3.934,0.369-7.246,2.408-9.936
				c2.038-2.69,4.914-4.239,8.628-4.649c1.397-0.154,2.705-0.107,3.923,0.14c1.218,0.247,2.385,0.709,3.502,1.386l-1.644-14.917
				l2.757-0.304l4.251,38.575l-2.757,0.304L570.768,758.954z M570.428,755.865l-1.726-15.662c-1.045-0.871-2.145-1.48-3.299-1.827
				c-1.155-0.347-2.44-0.443-3.855-0.287c-2.831,0.312-5.03,1.55-6.596,3.713s-2.174,4.835-1.824,8.015
				c0.35,3.18,1.526,5.655,3.525,7.426c2,1.77,4.415,2.5,7.246,2.188c1.452-0.16,2.7-0.526,3.744-1.096
				C568.688,757.764,569.616,756.941,570.428,755.865z"/>
			<path d="M577.304,725.832l-0.517-4.688l2.895-0.319l0.517,4.688L577.304,725.832z M581.039,759.719l-2.808-25.478l2.895-0.319
				l2.808,25.478L581.039,759.719z"/>
			<path d="M594.246,751.929c0.188,1.71,0.547,2.814,1.077,3.314c0.53,0.5,1.401,0.683,2.614,0.549
				c0.625-0.069,1.266-0.247,1.923-0.533c0.657-0.286,1.384-0.697,2.181-1.231l0.307,2.785c-0.752,0.436-1.5,0.784-2.243,1.043
				c-0.744,0.259-1.502,0.431-2.274,0.516c-2.114,0.233-3.659-0.108-4.634-1.024c-0.975-0.916-1.602-2.633-1.879-5.151
				l-1.851-16.792l-5.432,0.599l-0.261-2.371l5.542-0.611l-0.641-5.818l1.877-2.719l0.662-0.073l0.915,8.3l6.838-0.754l0.261,2.371
				l-6.838,0.754L594.246,751.929z"/>
			<path d="M638.252,752.381c-0.991,0.63-2.001,1.128-3.031,1.492c-1.03,0.365-2.105,0.609-3.226,0.732
				c-3.915,0.432-7.269-0.455-10.061-2.659c-2.792-2.204-4.402-5.245-4.829-9.124c-0.415-3.768,0.533-7.064,2.845-9.886
				c2.312-2.822,5.426-4.449,9.342-4.881c0.956-0.105,1.917-0.118,2.884-0.039c0.967,0.079,1.95,0.259,2.948,0.54l0.35,3.171
				c-1.037-0.462-2.067-0.772-3.089-0.93c-1.022-0.157-2.084-0.175-3.188-0.053c-2.831,0.312-5.12,1.611-6.868,3.897
				c-1.748,2.286-2.458,4.918-2.13,7.896c0.33,2.996,1.591,5.406,3.783,7.23c2.192,1.824,4.712,2.578,7.562,2.264
				c1.066-0.117,2.127-0.411,3.182-0.881c1.055-0.47,2.114-1.117,3.177-1.941L638.252,752.381z"/>
			<path d="M655.545,748.996c-1.296,1.241-2.529,2.163-3.7,2.766c-1.171,0.603-2.427,0.979-3.769,1.127
				c-2.096,0.231-3.863-0.188-5.302-1.258c-1.439-1.069-2.265-2.569-2.477-4.499c-0.31-2.813,0.719-5.168,3.087-7.066
				c2.368-1.898,5.93-3.212,10.687-3.941l-0.298-2.702c-0.211-1.912-0.819-3.254-1.825-4.027c-1.006-0.773-2.502-1.05-4.487-0.831
				c-1.232,0.136-2.445,0.521-3.64,1.155c-1.195,0.634-2.468,1.574-3.82,2.821l-0.307-2.785c1.328-1.114,2.625-1.973,3.888-2.578
				c1.264-0.604,2.539-0.978,3.826-1.119c2.923-0.322,5.111,0.12,6.565,1.328c1.454,1.207,2.349,3.337,2.686,6.388l1.471,13.346
				c0.061,0.551,0.179,0.952,0.356,1.203c0.177,0.25,0.421,0.358,0.733,0.324c0.441-0.049,1.151-0.611,2.131-1.686
				c0.231-0.267,0.405-0.463,0.521-0.588l0.31,2.561c-0.742,0.863-1.441,1.526-2.097,1.989c-0.656,0.463-1.25,0.724-1.784,0.783
				c-0.809,0.089-1.427-0.08-1.856-0.507C656.015,750.773,655.715,750.038,655.545,748.996z M655.198,746.355l-0.878-7.969
				c-3.67,0.46-6.502,1.442-8.495,2.946c-1.992,1.503-2.874,3.294-2.645,5.371c0.144,1.305,0.698,2.286,1.664,2.942
				c0.965,0.656,2.22,0.9,3.764,0.729c1.048-0.116,2.103-0.497,3.167-1.144S653.98,747.625,655.198,746.355z"/>
			<path d="M666.434,750.308l-2.808-25.478l2.84-0.313l0.693,6.287c1.313-2.601,2.566-4.488,3.758-5.661
				c1.192-1.173,2.495-1.838,3.911-1.994c0.772-0.085,1.538-0.011,2.299,0.221c0.76,0.232,1.573,0.636,2.436,1.211l-1.246,2.872
				c-0.841-0.54-1.595-0.922-2.261-1.146c-0.667-0.224-1.294-0.304-1.882-0.239c-1.14,0.126-2.237,0.805-3.292,2.037
				c-1.055,1.233-2.182,3.162-3.381,5.787l1.775,16.103L666.434,750.308z"/>
			<path d="M702.431,744.443c-0.942,0.904-1.981,1.609-3.116,2.116c-1.135,0.507-2.401,0.837-3.798,0.991
				c-3.713,0.409-6.857-0.477-9.433-2.658c-2.575-2.181-4.08-5.239-4.513-9.173c-0.433-3.934,0.369-7.246,2.407-9.936
				c2.039-2.69,4.914-4.239,8.628-4.649c1.397-0.154,2.705-0.107,3.922,0.14c1.218,0.247,2.385,0.709,3.502,1.386l-1.644-14.917
				l2.757-0.304l4.251,38.575l-2.757,0.304L702.431,744.443z M702.091,741.355l-1.726-15.662c-1.045-0.871-2.145-1.48-3.299-1.827
				c-1.155-0.347-2.44-0.443-3.855-0.287c-2.831,0.312-5.029,1.55-6.596,3.713c-1.566,2.163-2.174,4.835-1.824,8.015
				c0.351,3.18,1.526,5.655,3.526,7.426c2,1.77,4.415,2.5,7.246,2.188c1.452-0.16,2.7-0.525,3.744-1.096
				C700.351,743.253,701.279,742.43,702.091,741.355z"/>
		</g>
		<g>
			<g>
				<g>
					<path style="fill:#FEC786;" d="M434.359,767.353c-6.2,0.683-11.78-3.789-12.464-9.989c-0.683-6.2,3.789-11.781,9.989-12.464
						c6.2-0.683,11.78,3.789,12.464,9.989C445.032,761.089,440.56,766.669,434.359,767.353z"/>
				</g>
			</g>
			<g>
				<g>
					<path style="fill:#FEC786;" d="M425.512,777.703c0.113,1.027-0.059,2.098-0.557,3.091c-1.374,2.738-4.709,3.845-7.447,2.471
						c-9.167-4.599-15.31-13.424-16.432-23.607c-1.049-9.522,2.553-19.066,9.637-25.531c2.263-2.066,5.773-1.905,7.839,0.358
						c2.066,2.263,1.905,5.773-0.358,7.839c-4.474,4.082-6.749,10.108-6.087,16.118c0.708,6.428,4.588,12,10.378,14.904
						C424.23,774.223,425.313,775.895,425.512,777.703z"/>
				</g>
			</g>
			<g>
				<g>
					<path style="fill:#FEC786;" d="M416.033,795.319c0.113,1.027-0.059,2.098-0.557,3.09c-1.374,2.74-4.708,3.846-7.447,2.472
						c-15.258-7.654-25.483-22.343-27.351-39.29c-1.747-15.848,4.25-31.733,16.041-42.494c2.263-2.066,5.773-1.906,7.839,0.358
						c2.065,2.262,1.906,5.772-0.358,7.838c-9.181,8.379-13.851,20.746-12.491,33.082c1.454,13.192,9.415,24.627,21.296,30.587
						C414.751,791.839,415.834,793.512,416.033,795.319z"/>
				</g>
			</g>
		</g>
		<path style="fill:#3A92AD;" d="M894.404,835.111l-482.871,53.218c-14.448,1.592-27.572-8.926-29.164-23.374v0
			c-1.592-14.448,8.926-27.572,23.374-29.164l482.871-53.218c14.448-1.592,27.572,8.926,29.164,23.374v0
			C919.37,820.394,908.852,833.518,894.404,835.111z"/>
		<path style="fill:#3A92AD;" d="M667.787,911.641l-259.825,28.636c-9.397,1.036-17.933-5.805-18.968-15.202l0,0
			c-1.036-9.397,5.805-17.933,15.202-18.968l259.825-28.636c9.397-1.036,17.933,5.805,18.968,15.202v0
			C684.025,902.07,677.184,910.605,667.787,911.641z"/>
		<path style="fill:#3A92AD;" d="M532.429,975.477l-119.14,13.131c-9.397,1.036-17.933-5.805-18.968-15.202l0,0
			c-1.036-9.397,5.805-17.933,15.202-18.968l119.14-13.131c9.397-1.036,17.933,5.805,18.968,15.202v0
			C548.667,965.905,541.826,974.441,532.429,975.477z"/>
		<path style="fill:#3A92AD;" d="M730.638,953.632l-119.14,13.131c-9.397,1.036-17.933-5.805-18.968-15.202v0
			c-1.036-9.397,5.805-17.933,15.202-18.968l119.14-13.131c9.397-1.036,17.933,5.805,18.968,15.202l0,0
			C746.876,944.06,740.035,952.596,730.638,953.632z"/>
		<g>
			<g>
				<g>
					<path d="M362.042,1036.653c-10.99-7.235-18.061-18.882-19.401-31.957l-26.597-260.705c-0.131-1.282,0.805-2.44,2.087-2.582
						c0.564-0.058,1.094,0.072,1.551,0.372c0.595,0.392,0.978,1.022,1.051,1.731l25.87,253.604
						c1.708,15.506,8.298,27.441,19.057,34.524c8.475,5.579,19.379,7.82,31.533,6.48l338.217-36.102
						c0.55-0.059,1.084,0.071,1.545,0.374c0.592,0.389,0.974,1.016,1.049,1.718c0.137,1.288-0.798,2.451-2.085,2.593
						l-345.325,36.862C380.579,1044.637,370.439,1042.181,362.042,1036.653z"/>
				</g>
			</g>
		</g>
		<g>
			<g>
				<g>
					<path d="M544.81,671.944c-0.328-0.216-0.756-0.608-0.932-1.249c-0.19-0.693-0.078-1.394,0.317-1.975
						c0.389-0.573,1.005-0.944,1.692-1.019l363.287-38.78c10.124-1.081,20.374,1.402,28.862,6.989
						c11.109,7.313,18.257,19.087,19.611,32.303l20.438,201.808c0.131,1.282-0.805,2.441-2.086,2.582
						c-0.564,0.057-1.095-0.072-1.552-0.373c-0.595-0.391-0.978-1.022-1.051-1.73L953.251,671.54
						c-1.297-12.656-8.142-23.931-18.779-30.934c-8.129-5.352-17.945-7.729-27.64-6.694l-360.252,38.455
						C545.955,672.433,545.327,672.283,544.81,671.944z"/>
				</g>
			</g>
		</g>
	</g>
	<g>
		<g>
			<g>
				
					<ellipse transform="matrix(0.7071 -0.7071 0.7071 0.7071 189.3666 1935.7045)" style="fill:#F99247;" cx="2431.285" cy="739.267" rx="271.723" ry="271.723"/>
			</g>
		</g>
		<g>
			<g>
				
					<ellipse transform="matrix(0.7071 -0.7071 0.7071 0.7071 189.3666 1935.7045)" style="fill:#FECC86;" cx="2431.285" cy="739.267" rx="235.003" ry="235.003"/>
			</g>
		</g>
		<g>
			<g>
				<path style="fill:#F99247;" d="M2513.341,759.95c-8.255-12.495-24.878-25.595-49.877-39.303
					c-5.233-2.861-12.466-6.661-21.676-11.403c-29.99-15.434-44.273-30.018-42.882-43.75c0.899-8.868,4.797-15.559,11.694-20.079
					c6.908-4.519,15.887-6.218,26.947-5.097c11.414,1.157,20.736,4.895,27.946,11.207c7.219,6.324,13.061,15.844,17.548,28.572
					l48.011-12.258c-5.194-20.286-14.966-36.191-29.318-47.715c-9.416-7.552-20.722-13.12-33.887-16.727l3.63-35.813l-45.12-4.573
					l-3.641,35.93c-16.522,1.248-30.956,6.042-43.292,14.4c-17.737,12.017-27.703,28.957-29.92,50.828
					c-1.306,12.883,0.253,24.699,4.697,35.461c4.423,10.76,11.478,19.945,21.134,27.552c9.766,7.866,27.457,18.008,53.081,30.421
					c3.75,1.732,6.617,3.128,8.604,4.186c14.618,7.132,24.557,13.811,29.817,20.057c5.26,6.236,7.464,13.551,6.615,21.935
					c-1.071,10.571-5.868,18.555-14.39,23.951c-8.533,5.396-19.606,7.403-33.207,6.025c-12.029-1.219-22.119-5.582-30.248-13.098
					c-8.139-7.517-15.059-18.866-20.759-34.053l-48.391,15.902c6.706,22.286,18.159,39.771,34.371,52.462
					c9.795,7.673,21.194,13.474,34.174,17.43l-3.907,38.549l45.12,4.573l3.745-36.953c20.799-0.308,38.254-5.435,52.34-15.43
					c17.845-12.674,28.047-31.526,30.584-56.558C2524.767,787.99,2521.586,772.448,2513.341,759.95z"/>
			</g>
		</g>
		<g style="opacity:0.3;">
			<g>
				<path style="fill:#FEC786;" d="M2615.908,593.888c-94.54,174.576-297.375,216.584-405.284,226.345
					c30.051,81.712,104.518,143.469,196.964,152.839c129.128,13.087,244.415-80.982,257.502-210.109
					C2671.486,699.859,2652.281,640.069,2615.908,593.888z"/>
			</g>
		</g>
		<g>
			<g>
				<path style="fill:#21111D;" d="M2270.094,960.092c38.774,28.404,84.553,46.09,133.635,51.063
					c0.858,0.088,1.625-0.537,1.709-1.394c0.091-0.863-0.546-1.628-1.394-1.709c-71.79-7.278-136.454-42.076-182.08-97.991
					c-45.621-55.912-66.738-126.242-59.463-198.038c15.02-148.207,147.817-256.563,296.026-241.545
					c0.858,0.088,1.625-0.537,1.709-1.394c0.092-0.863-0.548-1.626-1.394-1.709c-149.923-15.196-284.254,94.413-299.445,244.333
					c-7.361,72.625,13.999,143.771,60.149,200.328C2234.504,930.37,2251.496,946.469,2270.094,960.092z"/>
			</g>
		</g>
		<g>
			<g>
				<path style="fill:#21111D;" d="M2406.667,974.332c0.219,0.16,0.479,0.264,0.765,0.292
					c129.777,13.154,246.061-81.726,259.211-211.503c13.156-129.78-81.731-246.069-211.505-259.213
					c-0.858-0.088-1.625,0.537-1.709,1.394c-0.089,0.864,0.548,1.626,1.394,1.709c62.037,6.288,117.918,36.356,157.335,84.672
					c39.419,48.314,57.667,109.084,51.382,171.122c-12.98,128.064-127.728,221.693-255.793,208.714
					c-0.858-0.088-1.625,0.537-1.709,1.394C2405.978,973.487,2406.236,974.016,2406.667,974.332z"/>
			</g>
		</g>
		<g>
			<g>
				<path style="fill:#21111D;" d="M2283.159,586.589c0.047,0.034,0.098,0.068,0.148,0.097c0.749,0.428,1.702,0.17,2.132-0.578
					c0.24-0.421,24.638-42.198,68.884-53.287c0.836-0.208,1.344-1.056,1.134-1.894c-0.209-0.829-1.056-1.345-1.894-1.135
					c-45.561,11.419-70.586,54.331-70.833,54.762C2282.331,585.253,2282.527,586.126,2283.159,586.589z"/>
			</g>
		</g>
		<g>
			<g>
				<path style="fill:#21111D;" d="M2302.749,605.937c0.047,0.034,0.098,0.068,0.148,0.097c0.749,0.428,1.702,0.169,2.132-0.578
					c0.24-0.421,24.636-42.196,68.882-53.285c0.836-0.208,1.344-1.056,1.134-1.894c-0.209-0.83-1.059-1.346-1.895-1.135
					c-45.561,11.419-70.584,54.329-70.832,54.76C2301.921,604.601,2302.117,605.474,2302.749,605.937z"/>
			</g>
		</g>
		<g>
			<g>
				<path style="fill:#21111D;" d="M2378.502,614.602c0.517,0.378,1.236,0.414,1.798,0.032
					c12.035-8.156,26.344-12.912,42.534-14.134l1.305-0.099l3.77-37.232c0.087-0.862-0.545-1.624-1.394-1.709
					c-0.858-0.088-1.625,0.537-1.709,1.394l-3.511,34.639c-16.204,1.417-30.581,6.311-42.746,14.558
					c-0.713,0.483-0.899,1.455-0.416,2.167C2378.237,614.37,2378.362,614.499,2378.502,614.602z"/>
			</g>
		</g>
		<g>
			<g>
				<path style="fill:#21111D;" d="M2397.982,666.753c0.219,0.161,0.479,0.264,0.765,0.292c0.858,0.088,1.625-0.537,1.709-1.394
					c0.858-8.452,4.456-14.643,10.998-18.93c6.569-4.297,15.296-5.93,25.937-4.852c11.031,1.118,20.142,4.761,27.074,10.829
					c6.971,6.109,12.728,15.501,17.104,27.918l0.476,1.347l50.906-12.998l-0.386-1.516c-5.256-20.524-15.298-36.859-29.852-48.541
					c-9.524-7.654-21.114-13.362-34.455-17.019c-0.831-0.227-1.688,0.26-1.917,1.094c-0.229,0.834,0.266,1.692,1.095,1.917
					c12.924,3.544,24.147,9.067,33.323,16.443c13.655,10.963,23.199,26.222,28.383,45.37l-45.111,11.517
					c-4.499-12.266-10.384-21.642-17.509-27.882c-7.446-6.513-17.127-10.403-28.816-11.584c-11.371-1.155-20.778,0.644-27.96,5.344
					c-7.282,4.77-11.451,11.911-12.393,21.226C2397.293,665.908,2397.552,666.438,2397.982,666.753z"/>
			</g>
		</g>
		<g>
			<g>
				<path style="fill:#21111D;" d="M2435.29,916.78c0.219,0.16,0.479,0.264,0.765,0.292c0.858,0.088,1.625-0.537,1.709-1.394
					l3.607-35.575c20.452-0.524,37.882-5.797,51.831-15.69c18.154-12.893,28.662-32.299,31.231-57.675
					c0.092-0.863-0.546-1.629-1.394-1.709c-0.858-0.088-1.625,0.537-1.709,1.394c-2.478,24.441-12.548,43.094-29.936,55.442
					c-13.735,9.745-31.049,14.84-51.461,15.143l-1.387,0.02l-3.885,38.334C2434.601,915.935,2434.86,916.465,2435.29,916.78z"/>
			</g>
		</g>
		<g>
			<g>
				<path style="fill:#21111D;" d="M2362.294,858.04c9.348,6.848,20.182,12.173,32.252,15.851c0.824,0.252,1.698-0.212,1.947-1.038
					c0.25-0.826-0.21-1.7-1.038-1.947c-12.757-3.886-24.053-9.629-33.667-17.167c-15.519-12.15-26.751-29.043-33.391-50.226
					l45.52-14.96c5.664,14.654,12.6,25.836,20.628,33.252c8.368,7.706,18.827,12.257,31.15,13.501
					c13.898,1.411,25.403-0.692,34.2-6.257c8.91-5.641,13.992-14.09,15.108-25.112c0.889-8.784-1.454-16.556-6.972-23.101
					c-0.573-0.646-1.543-0.741-2.202-0.188c-0.658,0.558-0.744,1.542-0.188,2.202c4.952,5.873,7.056,12.861,6.259,20.771
					c-1.032,10.161-5.504,17.617-13.675,22.79c-8.19,5.178-19.029,7.127-32.215,5.791c-11.641-1.179-21.501-5.45-29.345-12.693
					c-7.924-7.317-14.773-18.571-20.36-33.453l-0.526-1.402l-51.258,16.842l0.439,1.459c6.769,22.495,18.512,40.408,34.904,53.244
					C2360.664,856.823,2361.472,857.438,2362.294,858.04z"/>
			</g>
		</g>
	</g>
</g>
</svg>
