<svg width="1920" height="1080" viewBox="0 0 1920 1080" xmlns="http://www.w3.org/2000/svg"><rect width="1920" height="1080" fill="#ffffff"/><path d="M 0,1080 C 0,1080 0,270 0,270 C 160.03571428571428,270.2142857142857 320.07142857142856,270.42857142857144 558,286 C 795.9285714285714,301.57142857142856 1111.75,332.49999999999994 1178,320 C 1244.25,307.50000000000006 1060.9285714285713,251.57142857142856 1143,236 C 1225.0714285714287,220.42857142857144 1572.5357142857142,245.21428571428572 1920,270 C 1920,270 1920,1080 1920,1080 Z" fill="#858585" opacity="0.15"/><path d="M 0,1080 C 0,1080 0,540 0,540 C -84.53571428571429,595.1428571428571 -169.07142857142858,650.2857142857143 26,626 C 221.07142857142858,601.7142857142857 695.75,497.99999999999994 950,499 C 1204.25,500.00000000000006 1238.0714285714287,605.7142857142858 1363,630 C 1487.9285714285713,654.2857142857142 1703.9642857142858,597.1428571428571 1920,540 C 1920,540 1920,1080 1920,1080 Z" fill="#858585" opacity="0.3"/><path d="M 0,1080 C 0,1080 0,810 0,810 C 22.785714285714292,776.25 45.571428571428584,742.5 129,726 C 212.42857142857142,709.5 356.5,710.25 630,748 C 903.5,785.75 1306.4285714285716,860.5 1543,877 C 1779.5714285714284,893.5 1849.7857142857142,851.75 1920,810 C 1920,810 1920,1080 1920,1080 Z" fill="#858585" opacity="0.44999999999999996"/></svg>