<svg width="1920" height="1080" viewBox="0 0 1920 1080" xmlns="http://www.w3.org/2000/svg"><rect width="1920" height="1080" fill="#fafafa"/><path d="M1356.4530456426855,559.9999999999999C1356.9530456426855,627.278139482918,1423.2675227496163,652.3341528184768,1381.5640897740316,701.3804690424904C1339.8606567984468,750.426785266504,1178.18199190511,840.7583639410731,1106.2324477891768,854.2778973440813C1034.2829036732437,867.7974307470896,1021.0201214225251,777.5910567018531,949.8668250784326,782.4976694605402C878.7135287343401,787.4042822192274,725.8477068217769,897.1705770431874,679.3126697246217,883.7175738962046C632.7776326274666,870.2645707492218,677.9655366483578,776.7306321420253,670.6566024955015,701.7796505786433C663.3476683426452,626.8286690152613,632.0163869359636,500.10746625261083,635.4590648074836,434.0116845159124C638.9017426790036,367.915902779214,641.761848940662,321.7060141998255,691.3126697246216,305.2049601584527C740.8634905085812,288.7039061170799,851.3266418235368,327.10127426572944,932.7639895112413,335.0053602676757C1014.2013371989459,342.909446269622,1105.6367391403837,358.8450975239127,1179.9367558508488,352.6294761701303C1254.236772561314,346.4138548163479,1349.1447081420588,263.1498781733362,1378.5640897740316,297.71163214498114C1407.9834714060044,332.27338611662606,1355.9530456426855,492.72186051708167,1356.4530456426855,559.9999999999999C1356.9530456426855,627.278139482918,1423.2675227496163,652.3341528184768,1381.5640897740316,701.3804690424904" fill="#2f282a"/></svg>