<svg xmlns="http://www.w3.org/2000/svg" viewBox="0 0 1440 320"><path fill="#273036" fill-opacity="1" d="M0,224L6.2,186.7C12.3,149,25,75,37,85.3C49.2,96,62,192,74,245.3C86.2,299,98,309,111,309.3C123.1,309,135,299,148,293.3C160,288,172,288,185,288C196.9,288,209,288,222,288C233.8,288,246,288,258,288C270.8,288,283,288,295,277.3C307.7,267,320,245,332,234.7C344.6,224,357,224,369,229.3C381.5,235,394,245,406,240C418.5,235,431,213,443,213.3C455.4,213,468,235,480,256C492.3,277,505,299,517,298.7C529.2,299,542,277,554,234.7C566.2,192,578,128,591,101.3C603.1,75,615,85,628,96C640,107,652,117,665,128C676.9,139,689,149,702,176C713.8,203,726,245,738,245.3C750.8,245,763,203,775,186.7C787.7,171,800,181,812,165.3C824.6,149,837,107,849,85.3C861.5,64,874,64,886,101.3C898.5,139,911,213,923,234.7C935.4,256,948,224,960,229.3C972.3,235,985,277,997,272C1009.2,267,1022,213,1034,186.7C1046.2,160,1058,160,1071,170.7C1083.1,181,1095,203,1108,202.7C1120,203,1132,181,1145,186.7C1156.9,192,1169,224,1182,250.7C1193.8,277,1206,299,1218,282.7C1230.8,267,1243,213,1255,165.3C1267.7,117,1280,75,1292,74.7C1304.6,75,1317,117,1329,122.7C1341.5,128,1354,96,1366,96C1378.5,96,1391,128,1403,122.7C1415.4,117,1428,75,1434,53.3L1440,32L1440,0L1433.8,0C1427.7,0,1415,0,1403,0C1390.8,0,1378,0,1366,0C1353.8,0,1342,0,1329,0C1316.9,0,1305,0,1292,0C1280,0,1268,0,1255,0C1243.1,0,1231,0,1218,0C1206.2,0,1194,0,1182,0C1169.2,0,1157,0,1145,0C1132.3,0,1120,0,1108,0C1095.4,0,1083,0,1071,0C1058.5,0,1046,0,1034,0C1021.5,0,1009,0,997,0C984.6,0,972,0,960,0C947.7,0,935,0,923,0C910.8,0,898,0,886,0C873.8,0,862,0,849,0C836.9,0,825,0,812,0C800,0,788,0,775,0C763.1,0,751,0,738,0C726.2,0,714,0,702,0C689.2,0,677,0,665,0C652.3,0,640,0,628,0C615.4,0,603,0,591,0C578.5,0,566,0,554,0C541.5,0,529,0,517,0C504.6,0,492,0,480,0C467.7,0,455,0,443,0C430.8,0,418,0,406,0C393.8,0,382,0,369,0C356.9,0,345,0,332,0C320,0,308,0,295,0C283.1,0,271,0,258,0C246.2,0,234,0,222,0C209.2,0,197,0,185,0C172.3,0,160,0,148,0C135.4,0,123,0,111,0C98.5,0,86,0,74,0C61.5,0,49,0,37,0C24.6,0,12,0,6,0L0,0Z"></path></svg>