<svg xmlns="http://www.w3.org/2000/svg" version="1.1" xmlns:xlink="http://www.w3.org/1999/xlink" xmlns:svgjs="http://svgjs.com/svgjs" width="1440" height="720" preserveAspectRatio="none" viewBox="0 0 1440 720"><g mask="url(&quot;#SvgjsMask1202&quot;)" fill="none"><rect width="1440" height="720" x="0" y="0" fill="url(#SvgjsRadialGradient1203)"></rect><path d="M720 930.79C861.88 917.16 961.23 802.82 1061.43 701.43 1160.74 600.96 1276.68 501.07 1284.16 360 1291.88 213.94 1211.74 74.3 1099.61-19.61 995.81-106.58 855.15-103.9 720-112.53 570.13-122.12 396.05-176.35 288.57-71.43 180.79 33.8 232.92 209.41 236.01 360 239 505.45 211.94 663.01 306.02 773.98 405.23 890.98 567.31 945.45 720 930.79" fill="rgba(72, 66, 19, 1)"></path><path d="M720 729.34C811.81 720.51 876.09 646.53 940.92 580.92 1005.19 515.91 1080.21 451.28 1085.05 360 1090.04 265.49 1038.19 175.13 965.63 114.37 898.46 58.09 807.45 59.83 720 54.24 623.02 48.04 510.38 12.95 440.84 80.84 371.1 148.93 404.83 262.56 406.83 360 408.77 454.12 391.25 556.06 452.13 627.87 516.32 703.57 621.2 738.82 720 729.34" fill="rgba(19, 87, 249, 1)"></path><path d="M720 527.88C761.73 523.87 790.95 490.24 820.42 460.42 849.63 430.87 883.73 401.49 885.93 360 888.2 317.04 864.63 275.97 831.65 248.35 801.12 222.77 759.75 223.56 720 221.02 675.92 218.2 624.72 202.25 593.11 233.11 561.41 264.06 576.74 315.71 577.65 360 578.53 402.78 570.57 449.12 598.24 481.76 627.42 516.17 675.09 532.19 720 527.88" fill="rgba(255, 255, 255, 1)"></path></g><defs><mask id="SvgjsMask1202"><rect width="1440" height="720" fill="#ffffff"></rect></mask><radialGradient cx="50%" cy="50%" r="804.98" gradientUnits="userSpaceOnUse" id="SvgjsRadialGradient1203"><stop stop-color="rgba(78, 78, 78, 1)" offset="0.36"></stop><stop stop-color="rgba(216, 1, 1, 1)" offset="1"></stop></radialGradient></defs></svg>