<svg xmlns="http://www.w3.org/2000/svg" viewBox="0 0 1440 320"><path fill="#00cba9" fill-opacity="1" d="M0,32L0,320L37.9,320L37.9,256L75.8,256L75.8,256L113.7,256L113.7,288L151.6,288L151.6,320L189.5,320L189.5,128L227.4,128L227.4,0L265.3,0L265.3,288L303.2,288L303.2,160L341.1,160L341.1,320L378.9,320L378.9,192L416.8,192L416.8,160L454.7,160L454.7,128L492.6,128L492.6,288L530.5,288L530.5,160L568.4,160L568.4,160L606.3,160L606.3,96L644.2,96L644.2,288L682.1,288L682.1,192L720,192L720,192L757.9,192L757.9,128L795.8,128L795.8,320L833.7,320L833.7,0L871.6,0L871.6,192L909.5,192L909.5,256L947.4,256L947.4,128L985.3,128L985.3,32L1023.2,32L1023.2,0L1061.1,0L1061.1,0L1098.9,0L1098.9,192L1136.8,192L1136.8,224L1174.7,224L1174.7,96L1212.6,96L1212.6,64L1250.5,64L1250.5,160L1288.4,160L1288.4,32L1326.3,32L1326.3,64L1364.2,64L1364.2,32L1402.1,32L1402.1,32L1440,32L1440,320L1402.1,320L1402.1,320L1364.2,320L1364.2,320L1326.3,320L1326.3,320L1288.4,320L1288.4,320L1250.5,320L1250.5,320L1212.6,320L1212.6,320L1174.7,320L1174.7,320L1136.8,320L1136.8,320L1098.9,320L1098.9,320L1061.1,320L1061.1,320L1023.2,320L1023.2,320L985.3,320L985.3,320L947.4,320L947.4,320L909.5,320L909.5,320L871.6,320L871.6,320L833.7,320L833.7,320L795.8,320L795.8,320L757.9,320L757.9,320L720,320L720,320L682.1,320L682.1,320L644.2,320L644.2,320L606.3,320L606.3,320L568.4,320L568.4,320L530.5,320L530.5,320L492.6,320L492.6,320L454.7,320L454.7,320L416.8,320L416.8,320L378.9,320L378.9,320L341.1,320L341.1,320L303.2,320L303.2,320L265.3,320L265.3,320L227.4,320L227.4,320L189.5,320L189.5,320L151.6,320L151.6,320L113.7,320L113.7,320L75.8,320L75.8,320L37.9,320L37.9,320L0,320L0,320Z"></path></svg>