<?xml version="1.0" standalone="no"?>
<svg xmlns:xlink="http://www.w3.org/1999/xlink" id="wave" style="transform:rotate(0deg); transition: 0.3s" viewBox="0 0 1440 490" version="1.1" xmlns="http://www.w3.org/2000/svg"><defs><linearGradient id="sw-gradient-0" x1="0" x2="0" y1="1" y2="0"><stop stop-color="rgba(50, 170, 148, 1)" offset="0%"/><stop stop-color="rgba(255, 255, 255, 1)" offset="100%"/></linearGradient></defs><path style="transform:translate(0, 0px); opacity:1" fill="url(#sw-gradient-0)" d="M0,392L26.7,400.2C53.3,408,107,425,160,424.7C213.3,425,267,408,320,375.7C373.3,343,427,294,480,228.7C533.3,163,587,82,640,98C693.3,114,747,229,800,302.2C853.3,376,907,408,960,424.7C1013.3,441,1067,441,1120,416.5C1173.3,392,1227,343,1280,318.5C1333.3,294,1387,294,1440,294C1493.3,294,1547,294,1600,261.3C1653.3,229,1707,163,1760,130.7C1813.3,98,1867,98,1920,147C1973.3,196,2027,294,2080,351.2C2133.3,408,2187,425,2240,392C2293.3,359,2347,278,2400,269.5C2453.3,261,2507,327,2560,359.3C2613.3,392,2667,392,2720,400.2C2773.3,408,2827,425,2880,432.8C2933.3,441,2987,441,3040,408.3C3093.3,376,3147,310,3200,253.2C3253.3,196,3307,147,3360,106.2C3413.3,65,3467,33,3520,73.5C3573.3,114,3627,229,3680,245C3733.3,261,3787,180,3813,138.8L3840,98L3840,490L3813.3,490C3786.7,490,3733,490,3680,490C3626.7,490,3573,490,3520,490C3466.7,490,3413,490,3360,490C3306.7,490,3253,490,3200,490C3146.7,490,3093,490,3040,490C2986.7,490,2933,490,2880,490C2826.7,490,2773,490,2720,490C2666.7,490,2613,490,2560,490C2506.7,490,2453,490,2400,490C2346.7,490,2293,490,2240,490C2186.7,490,2133,490,2080,490C2026.7,490,1973,490,1920,490C1866.7,490,1813,490,1760,490C1706.7,490,1653,490,1600,490C1546.7,490,1493,490,1440,490C1386.7,490,1333,490,1280,490C1226.7,490,1173,490,1120,490C1066.7,490,1013,490,960,490C906.7,490,853,490,800,490C746.7,490,693,490,640,490C586.7,490,533,490,480,490C426.7,490,373,490,320,490C266.7,490,213,490,160,490C106.7,490,53,490,27,490L0,490Z"/></svg>