<svg id="visual" viewBox="0 0 1440 920" width="1440" height="920" xmlns="http://www.w3.org/2000/svg" xmlns:xlink="http://www.w3.org/1999/xlink" version="1.1"><rect x="0" y="0" width="1440" height="920" fill="#00c2a2"></rect><g transform="translate(707.547053414972 506.41682673642254)"><path d="M169.5 -314.1C207.1 -272 216.1 -201 256.8 -143.8C297.4 -86.7 369.7 -43.3 386.2 9.5C402.6 62.3 363.3 124.7 321.7 180.2C280.1 235.8 236.3 284.6 182.3 291.8C128.3 298.9 64.2 264.5 0.8 263C-62.5 261.6 -125 293.2 -173.5 282.8C-222 272.5 -256.5 220.3 -292.4 166.1C-328.3 112 -365.7 56 -365.1 0.3C-364.5 -55.3 -326 -110.7 -297.2 -177.1C-268.3 -243.5 -249.2 -320.9 -201.3 -357.1C-153.3 -393.2 -76.7 -388.1 -5.3 -378.9C66 -369.6 132 -356.3 169.5 -314.1" fill="#fff"></path></g></svg>