<svg id="visual" viewBox="0 0 1440 920" width="1440" height="920" xmlns="http://www.w3.org/2000/svg" xmlns:xlink="http://www.w3.org/1999/xlink" version="1.1"><rect x="0" y="0" width="1440" height="920" fill="#fff"></rect><defs><linearGradient id="grad1_0" x1="36.1%" y1="0%" x2="100%" y2="100%"><stop offset="18.69565217391304%" stop-color="#ffffff" stop-opacity="1"></stop><stop offset="81.30434782608697%" stop-color="#ffffff" stop-opacity="1"></stop></linearGradient></defs><defs><linearGradient id="grad2_0" x1="0%" y1="0%" x2="63.9%" y2="100%"><stop offset="18.69565217391304%" stop-color="#ffffff" stop-opacity="1"></stop><stop offset="81.30434782608697%" stop-color="#ffffff" stop-opacity="1"></stop></linearGradient></defs><g transform="translate(1440, 0)"><path d="M0 555.4C-82.1 552.5 -164.2 549.6 -207.4 500.7C-250.6 451.9 -255 357.2 -308.3 308.3C-361.6 259.4 -463.8 256.3 -513.1 212.5C-562.4 168.8 -558.9 84.4 -555.4 0L0 0Z" fill="#00c2a2"></path></g><g transform="translate(0, 920)"><path d="M0 -555.4C73.6 -550.7 147.2 -546 212.5 -513.1C277.8 -480.1 334.9 -418.9 352.8 -352.8C370.8 -286.7 349.7 -215.8 376.9 -156.1C404.2 -96.5 479.8 -48.3 555.4 0L0 0Z" fill="#00c2a2"></path></g></svg>